<?xml version="1.0" encoding="UTF-8"?><svg id="Layer_2" xmlns="http://www.w3.org/2000/svg" viewBox="0 0 363.52 80.86"><defs><style>.cls-1{fill:#cc8b9e;stroke:#fff;stroke-miterlimit:10;stroke-width:2px;}</style></defs><g id="File_Tab_Menus"><path class="cls-1" d="m1.02,79.45c3.05.67,6.12.18,9.18.28.7.02,1.46.43,2.12-.34,0-5.98,0-11.96,0-17.94,0-2.04,0-2.04,1.37-2.04,111.8,0,223.59,0,335.39,0,.47,0,.94.03,1.41.04.49-.18.68.12.61.85,0,.29,0,.59,0,.88,0,.82,0,1.64,0,2.46,0,4.86,0,9.72.01,14.58v1.52c3.31,0,6.62,0,9.93.01.39,0,1.34.03,1.42-.15.02-.21,0-.57.02-.78.01-.21.03-.42.04-.64-.02-.6-.06-1.21-.06-1.81,0-8.05,0-16.1,0-24.15,0-3.39.03-6.78.05-10.17-.15-.92.11-2.09-.74-2.59-8.23,0-8.83-22.63-10.72-28.99-1.03-3.45-2.24-6.85-4.71-8.41-1.72-1.08-110.42-1.15-110.68-1.08-2.92.85-5.17,3.1-6.4,7.26-2.06,6.97-2.84,30.22-10.61,31.04-1.44,0-8.04,0-8.57,0-55.19,0-201.49.05-201.61.07-8.32,0-7.45-2.02-7.45,14.16-.05,7.02,0,14.04.02,21.06.02.03.05.06.05.08,0,.07-.03.13-.04.19-.01,1.52-.02,3.05-.03,4.57Z"/></g></svg>