<?xml version="1.0" encoding="UTF-8"?><svg id="Layer_2" xmlns="http://www.w3.org/2000/svg" viewBox="0 0 533.94 774.54"><defs><style>.cls-1{fill:#774b23;}.cls-2{fill:#99c0c6;}.cls-3{fill:#898886;}.cls-4{fill:#f2e375;}.cls-5{fill:#ccc;}.cls-6{fill:none;stroke:#dd5757;stroke-miterlimit:10;stroke-width:8px;}.cls-7{opacity:.77;}</style></defs><g id="Notes_Chart"><path class="cls-4" d="m527.64,274.69c-.44,51.78-.53,103.56-1.58,155.33-.25,12.27.5,24.54-.25,36.79-.03.99-.05,1.98-.08,2.97-.22,15.99-.45,31.98-.67,47.97-1.37,3.19-1.35,6.39-.03,9.59-.32,27.48-.65,54.95-.97,82.43-1.81,11.86-1.58,23.75-.29,35.64-.35,34.79-.7,69.58-1.05,104.37-1.06.9-1.09,1.83-.06,2.79-.02,1.83-.05,3.65-.07,5.48-1.48,3.63-1.48,7.27-.08,10.93-.02.93-.05,1.87-.07,2.8-.25.4-.51.81-.76,1.21-1.65.17-3.29.34-4.94.51-8.39-.8-16.78-.8-25.18-.22-40.58-.58-81.17-1.15-121.75-1.73-7.9-1.89-15.83-1.66-23.76-.26-5.88-.07-11.76-.15-17.64-.22-1.15-1.12-2.49-.75-3.81-.62-1.98,1.62-4.29,1.48-6.53,1.27-16.6-1.58-33.26-.71-49.88-1.46-11.25-2.09-22.52-1.67-33.79-.36-2.13-.04-4.26-.07-6.39-.11-2.84-1.43-5.7-1.23-8.59-.19-38.08,1.6-76.12-1.67-114.19-1.17-9.75.13-19.48-.56-29.28.35-7.34.68-14.84-.73-22.27-1.21-9.6-2.1-19.22-1.73-28.84-.29-7.91-.03-15.82.48-23.71-.61-.41-1.95.41-4.19-1.13-5.89.21-23.76.42-47.51.63-71.27.76-7.85.74-15.7.17-23.55.08-1.35.16-2.69.23-4.04,1.86-4.56,1.68-9.15.17-13.75.02-4.11.05-8.23.07-12.34,1.26-1.36,1.26-2.73.05-4.13.36-32.5.73-65.01,1.09-97.51,1.44-1.8,1.45-3.62.08-5.46.24-38.92-.45-77.85,1.19-116.75,1.65-7.77,1.76-15.54.05-23.32-.11-11.41-.26-22.78.34-34.21.54-10.38,1.12-20.86-.44-31.33-1.24-8.35.98-16.72,1.23-25.1.15-.12.44-.28.42-.36-.08-.34-.24-.66-.38-.98,0-21.94,0-43.89.01-65.83.67-.35,1.04-.82.6-1.65.22-17.79.43-35.59.65-53.38,1.77-7.3,1.48-14.62.19-21.95.05-6.88.1-13.77.15-20.65,1.29-4.58,1.64-9.16-.17-13.7-1.28-26.24,1.8-52.41,1.1-78.66-.29-10.96.44-21.96.11-32.92-.17-5.57,1.73-6.28,6.32-6.72,16.66-1.59,33.27-.02,49.9.03,8.76.02,17.52.03,26.27.05,16.31.21,32.63.41,48.94.62.39.72.82.77,1.29.08,10.03.09,20.08-.48,30.08.98-1.21,1.21-2.8,2.2-3.56,3.68-4.38,8.58-2.93,11.6,5.96,11.08,26.87-1.57,53.76-.52,80.63-1.43,35.32-.3,70.64-.61,105.96-.88,10.41-.08,10.41-.02,9.58-10.58,18.31.3,36.61.61,54.92.91,1.23,1.3,2.47,1.33,3.71,0,5.86.01,11.72.02,17.57.03.41.66.84.72,1.29.05,26.77.42,53.54.84,80.31,1.26,2.52,1.63,2.48,4.25,2.63,7.07.35,6.27-1.23,12.66.85,18.83-.35,29.76-.69,59.52-1.04,89.28-1.93,12.34-1.59,24.7-.3,37.06-.38,33.87-.76,67.73-1.14,101.6-1.64,4.56-1.56,9.14-.09,13.72Z"/><path class="cls-5" d="m528.87,159.36c-1.29-12.37-1.64-24.73.3-37.06.42,12.36.49,24.72-.3,37.06Z"/><path class="cls-5" d="m234.4,769.9c11.28-1.31,22.55-1.74,33.79.36-11.27.54-22.53.44-33.79-.36Z"/><path class="cls-5" d="m523.76,645.41c-1.3-11.89-1.52-23.78.29-35.64.51,11.89.48,23.77-.29,35.64Z"/><path class="cls-3" d="m90.05,1.3c-8.76-.02-17.52-.03-26.27-.05,8.76-1.92,17.52-1.4,26.27.05Z"/><path class="cls-5" d="m530.21,33.02c-2.09-6.17-.5-12.55-.85-18.83-.16-2.81-.12-5.43-2.63-7.07,2.89-.8,4.19.24,4.05,3.69-.29,7.4-.39,14.8-.57,22.21Z"/><path class="cls-3" d="m491.56,773.28c8.4-.57,16.79-.58,25.18.22-8.41,1.46-16.8,1.37-25.18-.22Z"/><path class="cls-5" d="m346.05,771.29c7.94-1.4,15.86-1.63,23.76.26-7.93.49-15.85.51-23.76-.26Z"/><path class="cls-5" d="m527.64,274.69c-1.47-4.59-1.55-9.16.09-13.72.6,4.58.52,9.15-.09,13.72Z"/><path class="cls-5" d="m522.51,768.98c-1.4-3.66-1.4-7.3.08-10.93.58,3.65.5,7.29-.08,10.93Z"/><path class="cls-5" d="m219.42,769.6c2.88-1.04,5.75-1.24,8.59.19-2.88.63-5.74.71-8.59-.19Z"/><path class="cls-5" d="m525.02,527.34c-1.32-3.2-1.34-6.4.03-9.59.56,3.2.57,6.4-.03,9.59Z"/><path class="cls-5" d="m427.55,5.78c-1.24,1.32-2.48,1.29-3.71,0,1.24,0,2.47,0,3.71,0Z"/><path class="cls-5" d="m324.6,770.45c1.32-.13,2.67-.5,3.81.62-1.38.57-2.72.93-3.81-.62Z"/><path class="cls-5" d="m522.66,752.57c-1.03-.96-1-1.88.06-2.79-.02.93-.04,1.86-.06,2.79Z"/><path class="cls-3" d="m525.73,469.78c.03-.99.05-1.98.08-2.97.96,1.02.87,2.01-.08,2.97Z"/><path class="cls-5" d="m521.68,772.99c.25-.41.51-.81.76-1.21.34.85.13,1.28-.76,1.21Z"/><path class="cls-5" d="m140.28,2c-.47.69-.9.64-1.29-.08.43.03.86.06,1.29.08Z"/><path class="cls-5" d="m446.42,5.86c-.45.68-.88.61-1.29-.05.43.02.86.03,1.29.05Z"/><rect class="cls-1" x="7.59" y=".6" width="522.87" height="63.36"/><g class="cls-7"><path class="cls-2" d="m2.5,528.73c1.37,1.84,1.36,3.66-.08,5.46.03-1.82.05-3.64.08-5.46Z"/><path class="cls-2" d="m7.62,210.3c.45.83.07,1.3-.6,1.65.2-.55.4-1.1.6-1.65Z"/><path class="cls-2" d="m7.62,442.01c.45.83.07,1.3-.6,1.65.2-.55.4-1.1.6-1.65Z"/><path class="cls-2" d="m7.62,674.2c.45.83.07,1.3-.6,1.65.2-.55.4-1.1.6-1.65Z"/><path class="cls-2" d="m4.42,262.92c-.22-.45-.44-.9-.67-1.36,0,0-.01.03-.01.03,22.33-.03,44.65-.06,66.98-.1-.18.37-.35.74-.53,1.1-1.67.08-3.34.21-5.02.22-20.25.05-40.5.07-60.75.1Z"/><path class="cls-2" d="m3.77,288.15c.93-1.13,2.23-.65,3.35-.65,20.99-.03,41.99-.02,62.98-.02-.05.41-.11.82-.16,1.24-21.55.01-43.11.03-64.66.04-.5-.2-1-.4-1.51-.61Z"/><path class="cls-2" d="m70.73,78.87c0,.44-.02.89-.03,1.33-22.32-.03-44.65-.06-66.97-.09.62-2.09,2.39-1.18,3.63-1.18,21.12-.07,42.25-.05,63.37-.06Z"/><path class="cls-2" d="m70.88,105.91s0,.27,0,.27c-.26.11-.52.23-.78.34H4.34c1.85-1.37,3.89-.74,5.82-1.04,1.29.24,2.58.47,3.79-.31,18.19,0,36.39,0,54.58,0,.79.25,1.57.5,2.36.75Z"/><path class="cls-2" d="m70.66,131.64c.01.35.03.7.04,1.06-22.33-.03-44.65-.06-66.98-.1.58-1.08,1.63-.81,2.55-.82,20.03-.14,40.07-.27,60.1-.38,1.43,0,2.86.16,4.29.24Z"/><path class="cls-2" d="m70.66,158.17c.01.21,0,.43-.02.64-.21.02-.4.07-.59.17-21.39.05-42.78.1-64.18.16-.48-.39-1.47.22-1.61-.77-.01-.09.55-.27.85-.4,1.44.06,2.87.17,4.31.17,20.41.02,40.82.03,61.24.04Z"/><path class="cls-2" d="m70.65,184.29c.01.27.03.53.04.8-5.4-.02-10.81-.06-16.21-.04-16.69.04-33.39.11-50.08.17-.23-.29-.47-.58-.7-.87,3.37-.12,6.75-.24,10.12-.35,9.56.08,19.12.22,28.68.22,8.24,0,16.49-.15,24.73-.23.69.05,1.38.11,2.06.16.46.05.91.09,1.37.14Z"/><path class="cls-2" d="m70.72,235.94c-.02.29-.05.57-.07.86-.68.06-1.37.12-2.05.17-21.12,0-42.25,0-63.37,0-.29,0-.57,0-.86.01.31-2.18,2-.95,2.92-.96,20.42-.08,40.84-.06,61.26-.06.72,0,1.44-.02,2.16-.03Z"/><path class="cls-2" d="m70.7,209.97c-.01.25-.03.5-.04.75-.22-.01-.42.04-.6.15-20.79,0-41.58,0-62.36-.06-1.33,0-2.92.68-3.98-.81,22.33-.01,44.66-.02,66.99-.04Z"/><path class="cls-2" d="m4.42,495.73c-.22-.45-.44-.9-.67-1.36,0,0-.01.03-.01.03,22.33-.03,44.65-.06,66.98-.1-.18.37-.35.74-.53,1.1-1.67.08-3.34.21-5.02.22-20.25.05-40.5.07-60.75.1Z"/><path class="cls-2" d="m3.77,520.96c.93-1.13,2.23-.65,3.35-.65,20.99-.03,41.99-.02,62.98-.02-.05.41-.11.82-.16,1.24-21.55.01-43.11.03-64.66.04-.5-.2-1-.4-1.51-.61Z"/><path class="cls-2" d="m70.73,313.35c0,.44-.02.89-.03,1.33-22.32-.03-44.65-.06-66.97-.09.62-2.09,2.39-1.18,3.63-1.18,21.12-.07,42.25-.05,63.37-.06Z"/><path class="cls-2" d="m70.88,339.88s0,.27,0,.27c-.26.11-.52.23-.78.34H4.34c1.85-1.37,3.89-.74,5.82-1.04,1.29.24,2.58.47,3.79-.31,18.19,0,36.39,0,54.58,0,.79.25,1.57.5,2.36.75Z"/><path class="cls-2" d="m70.66,365.27c.01.35.03.7.04,1.06-22.33-.03-44.65-.06-66.98-.1.58-1.08,1.63-.81,2.55-.82,20.03-.14,40.07-.27,60.1-.38,1.43,0,2.86.16,4.29.24Z"/><path class="cls-2" d="m70.66,391.17c.01.21,0,.43-.02.64-.21.02-.4.07-.59.17-21.39.05-42.78.1-64.18.16-.48-.39-1.47.22-1.61-.77-.01-.09.55-.27.85-.4,1.44.06,2.87.17,4.31.17,20.41.02,40.82.03,61.24.04Z"/><path class="cls-2" d="m70.65,417.11c.01.27.03.53.04.8-5.4-.02-10.81-.06-16.21-.04-16.69.04-33.39.11-50.08.17-.23-.29-.47-.58-.7-.87,3.37-.12,6.75-.24,10.12-.35,9.56.08,19.12.22,28.68.22,8.24,0,16.49-.15,24.73-.23.69.05,1.38.11,2.06.16.46.05.91.09,1.37.14Z"/><path class="cls-2" d="m70.72,468.76c-.02.29-.05.57-.07.86-.68.06-1.37.12-2.05.17-21.12,0-42.25,0-63.37,0-.29,0-.57,0-.86.01.31-2.18,2-.95,2.92-.96,20.42-.08,40.84-.06,61.26-.06.72,0,1.44-.02,2.16-.03Z"/><path class="cls-2" d="m70.7,442.79c-.01.25-.03.5-.04.75-.22-.01-.42.04-.6.15-20.79,0-41.58,0-62.36-.06-1.33,0-2.92.68-3.98-.81,22.33-.01,44.66-.02,66.99-.04Z"/><path class="cls-2" d="m4.42,728.55c-.22-.45-.44-.9-.67-1.36,0,0-.01.03-.01.03,22.33-.03,44.65-.06,66.98-.1-.18.37-.35.74-.53,1.1-1.67.08-3.34.21-5.02.22-20.25.05-40.5.07-60.75.1Z"/><path class="cls-2" d="m3.77,753.78c.93-1.13,2.23-.65,3.35-.65,20.99-.03,41.99-.02,62.98-.02-.05.41-.11.82-.16,1.24-21.55.01-43.11.03-64.66.04-.5-.2-1-.4-1.51-.61Z"/><path class="cls-2" d="m70.73,546.16c0,.44-.02.89-.03,1.33-22.32-.03-44.65-.06-66.97-.09.62-2.09,2.39-1.18,3.63-1.18,21.12-.07,42.25-.05,63.37-.06Z"/><path class="cls-2" d="m70.88,572.69s0,.27,0,.27c-.26.11-.52.23-.78.34H4.34c1.85-1.37,3.89-.74,5.82-1.04,1.29.24,2.58.47,3.79-.31,18.19,0,36.39,0,54.58,0,.79.25,1.57.5,2.36.75Z"/><path class="cls-2" d="m70.66,598.09c.01.35.03.7.04,1.06-22.33-.03-44.65-.06-66.98-.1.58-1.08,1.63-.81,2.55-.82,20.03-.14,40.07-.27,60.1-.38,1.43,0,2.86.16,4.29.24Z"/><path class="cls-2" d="m70.66,623.99c.01.21,0,.43-.02.64-.21.02-.4.07-.59.17-21.39.05-42.78.1-64.18.16-.48-.39-1.47.22-1.61-.77-.01-.09.55-.27.85-.4,1.44.06,2.87.17,4.31.17,20.41.02,40.82.03,61.24.04Z"/><path class="cls-2" d="m70.65,649.92c.01.27.03.53.04.8-5.4-.02-10.81-.06-16.21-.04-16.69.04-33.39.11-50.08.17-.23-.29-.47-.58-.7-.87,3.37-.12,6.75-.24,10.12-.35,9.56.08,19.12.22,28.68.22,8.24,0,16.49-.15,24.73-.23.69.05,1.38.11,2.06.16.46.05.91.09,1.37.14Z"/><path class="cls-2" d="m70.72,701.57c-.02.29-.05.57-.07.86-.68.06-1.37.12-2.05.17-21.12,0-42.25,0-63.37,0-.29,0-.57,0-.86.01.31-2.18,2-.95,2.92-.96,20.42-.08,40.84-.06,61.26-.06.72,0,1.44-.02,2.16-.03Z"/><path class="cls-2" d="m70.7,675.6c-.01.25-.03.5-.04.75-.22-.01-.42.04-.6.15-20.79,0-41.58,0-62.36-.06-1.33,0-2.92.68-3.98-.81,22.33-.01,44.66-.02,66.99-.04Z"/><path class="cls-2" d="m528.84,80.16c-.68.03-1.37.07-2.05.1-1.68-.03-3.36-.09-5.05-.09-148.84,0-297.68,0-446.52-.01-.22-.06-.44-.13-.66-.19-.02-.31-.04-.62-.06-.93.14-.04.29-.07.44-.1,3.06,1.53,6.1-.09,9.16-.09,146.45.03,292.9.03,439.36.02,1.9,0,3.8,0,5.38,1.29Z"/><path class="cls-2" d="m530.4,210.53c-2.04.04-4.08.11-6.12.11-147.21,0-294.43,0-441.64,0-1.8,0-3.59.13-5.39.2-.63-.1-1.27-.19-1.9-.29-.27-.08-.53-.16-.8-.24,0-.12,0-.24-.02-.36.24-.06.49-.12.73-.18.72,0,1.44-.02,2.16-.02,150.99,0,301.97,0,452.96,0,0,.26.01.52.02.77Z"/><path class="cls-2" d="m102.51,131.56c1.68.06,3.36.18,5.03.18,137.84,0,275.67,0,413.51.04,1.98,0,4.04-.69,5.95.39.05.03.04.23,0,.32-.05.1-.16.17-.25.25-1.68-.03-3.36-.1-5.04-.1-148.82,0-297.63,0-446.45-.01-.23-.07-.47-.13-.7-.2,0,0,0-.35,0-.35.27-.11.55-.21.82-.31.86-.11,1.72-.23,2.59-.34,8.18.61,16.36.38,24.54.12Z"/><path class="cls-2" d="m87.32,183.83c1.79.09,3.59.26,5.38.26,144.47.01,288.95.01,433.42.01-.97,1.32-2.41.82-3.66.82-149.07.02-298.13,0-447.2,0-.24-.05-.48-.1-.72-.15.01-.12.01-.24,0-.36.26-.08.52-.16.79-.24,4-.11,7.99-.23,11.99-.34Z"/><path class="cls-2" d="m75.26,236.61c0-.25,0-.5,0-.76.18,0,.36-.06.52-.15,1.8.03,3.6.1,5.41.1,146.31,0,292.62,0,438.92.05,2.18,0,4.53-.75,6.58.71-.44.04-.89.08-1.33.12-.84-.03-1.68-.08-2.52-.08-149.19,0-298.39,0-447.58.01Z"/><path class="cls-2" d="m75.23,288.03c-.02-.22-.03-.44-.03-.66.21-.02.4-.08.59-.17,3.13-.02,6.26-.03,9.39-.05.72,0,1.45,0,2.17,0,1.68.05,3.36.14,5.04.14,145.74,0,291.48,0,437.23.01,1.44,0,2.88.1,4.32.15-.07.37-.15.73-.23,1.09-.62.05-1.24.09-1.86.14-.96-.03-1.92-.1-2.88-.1-150.79,0-301.57.01-452.36.02-.46-.2-.92-.39-1.38-.59Z"/><path class="cls-2" d="m75.23,158.92c.01-.27.02-.54.03-.81,148.71,0,297.42.01,446.14.01.84,0,1.68-.05,2.52-.08.2.05.41.09.61.12-.84,1.29-2.18.75-3.28.75-148.67.02-297.34.01-446.02,0Z"/><path class="cls-2" d="m531.05,107.04c-4.09.59-8.08-.63-12.17-.63-143.73.06-287.46.05-431.18.05-1.32,0-2.64.1-3.96.15-.48-.07-.96-.14-1.43-.22,0-.22.03-.43.07-.65.2-.04.39-.08.59-.14.3-.15.6-.3.9-.45,147.59,0,295.18,0,442.77,0,.3.15.6.3.9.45q3.37.17,3.51,1.43Z"/><path class="cls-2" d="m75.17,262.67c0-.4,0-.79,0-1.19,148.62,0,297.23-.01,445.85-.02,1.68,0,3.36-.06,5.05-.09.47.08,1.1,0,1.39.27.55.51-.1.85-.48.91-.94.14-1.91.18-2.86.18-149.05.01-298.1.01-447.15.01-.6,0-1.2-.04-1.8-.06Z"/><path class="cls-2" d="m528.84,314.41c-.68.03-1.37.07-2.05.1-1.68-.03-3.36-.09-5.05-.09-148.84,0-297.68,0-446.52-.01-.22-.06-.44-.13-.66-.19-.02-.31-.04-.62-.06-.93.14-.04.29-.07.44-.1,3.06,1.53,6.1-.09,9.16-.09,146.45.03,292.9.03,439.36.02,1.9,0,3.8,0,5.38,1.29Z"/><path class="cls-2" d="m530.4,443.43c-2.04.04-4.08.11-6.12.11-147.21,0-294.43,0-441.64,0-1.8,0-3.59.13-5.39.2-.63-.1-1.27-.19-1.9-.29-.27-.08-.53-.16-.8-.24,0-.12,0-.24-.02-.36.24-.06.49-.12.73-.18.72,0,1.44-.02,2.16-.02,150.99,0,301.97,0,452.96,0,0,.26.01.52.02.77Z"/><path class="cls-2" d="m102.51,365.03c1.68.06,3.36.18,5.03.18,137.84,0,275.67,0,413.51.04,1.98,0,4.04-.69,5.95.39.05.03.04.23,0,.32-.05.1-.16.17-.25.25-1.68-.03-3.36-.1-5.04-.1-148.82,0-297.63,0-446.45-.01-.23-.07-.47-.13-.7-.2,0,0,0-.35,0-.35.27-.11.55-.21.82-.31.86-.11,1.72-.23,2.59-.34,8.18.61,16.36.38,24.54.12Z"/><path class="cls-2" d="m87.32,416.72c1.79.09,3.59.26,5.38.26,144.47.01,288.95.01,433.42.01-.97,1.32-2.41.82-3.66.82-149.07.02-298.13,0-447.2,0-.24-.05-.48-.1-.72-.15.01-.12.01-.24,0-.36.26-.08.52-.16.79-.24,4-.11,7.99-.23,11.99-.34Z"/><path class="cls-2" d="m75.26,469.51c0-.25,0-.5,0-.76.18,0,.36-.06.52-.15,1.8.03,3.6.1,5.41.1,146.31,0,292.62,0,438.92.05,2.18,0,4.53-.75,6.58.71-.44.04-.89.08-1.33.12-.84-.03-1.68-.08-2.52-.08-149.19,0-298.39,0-447.58.01Z"/><path class="cls-2" d="m75.23,520.93c-.02-.22-.03-.44-.03-.66.21-.02.4-.08.59-.17,3.13-.02,6.26-.03,9.39-.05.72,0,1.45,0,2.17,0,1.68.05,3.36.14,5.04.14,145.74,0,291.48,0,437.23.01,1.44,0,2.88.1,4.32.15-.07.37-.15.73-.23,1.09-.62.05-1.24.09-1.86.14-.96-.03-1.92-.1-2.88-.1-150.79,0-301.57.01-452.36.02-.46-.2-.92-.39-1.38-.59Z"/><path class="cls-2" d="m75.23,391.82c.01-.27.02-.54.03-.81,148.71,0,297.42.01,446.14.01.84,0,1.68-.05,2.52-.08.2.05.41.09.61.12-.84,1.29-2.18.75-3.28.75-148.67.02-297.34.01-446.02,0Z"/><path class="cls-2" d="m531.05,340.55c-4.09.59-8.08-.63-12.17-.63-143.73.06-287.46.05-431.18.05-1.32,0-2.64.1-3.96.15-.48-.07-.96-.14-1.43-.22,0-.22.03-.43.07-.65.2-.04.39-.08.59-.14.3-.15.6-.3.9-.45,147.59,0,295.18,0,442.77,0,.3.15.6.3.9.45q3.37.17,3.51,1.43Z"/><path class="cls-2" d="m75.17,495.57c0-.4,0-.79,0-1.19,148.62,0,297.23-.01,445.85-.02,1.68,0,3.36-.06,5.05-.09.47.08,1.1,0,1.39.27.55.51-.1.85-.48.91-.94.14-1.91.18-2.86.18-149.05.01-298.1.01-447.15.01-.6,0-1.2-.04-1.8-.06Z"/><path class="cls-2" d="m528.84,547.31c-.68.03-1.37.07-2.05.1-1.68-.03-3.36-.09-5.05-.09-148.84,0-297.68,0-446.52-.01-.22-.06-.44-.13-.66-.19-.02-.31-.04-.62-.06-.93.14-.04.29-.07.44-.1,3.06,1.53,6.1-.09,9.16-.09,146.45.03,292.9.03,439.36.02,1.9,0,3.8,0,5.38,1.29Z"/><path class="cls-2" d="m530.4,676.33c-2.04.04-4.08.11-6.12.11-147.21,0-294.43,0-441.64,0-1.8,0-3.59.13-5.39.2-.63-.1-1.27-.19-1.9-.29-.27-.08-.53-.16-.8-.24,0-.12,0-.24-.02-.36.24-.06.49-.12.73-.18.72,0,1.44-.02,2.16-.02,150.99,0,301.97,0,452.96,0,0,.26.01.52.02.77Z"/><path class="cls-2" d="m102.51,597.93c1.68.06,3.36.18,5.03.18,137.84,0,275.67,0,413.51.04,1.98,0,4.04-.69,5.95.39.05.03.04.23,0,.32-.05.1-.16.17-.25.25-1.68-.03-3.36-.1-5.04-.1-148.82,0-297.63,0-446.45-.01-.23-.07-.47-.13-.7-.2,0,0,0-.35,0-.35.27-.11.55-.21.82-.31.86-.11,1.72-.23,2.59-.34,8.18.61,16.36.38,24.54.12Z"/><path class="cls-2" d="m87.32,649.62c1.79.09,3.59.26,5.38.26,144.47.01,288.95.01,433.42.01-.97,1.32-2.41.82-3.66.82-149.07.02-298.13,0-447.2,0-.24-.05-.48-.1-.72-.15.01-.12.01-.24,0-.36.26-.08.52-.16.79-.24,4-.11,7.99-.23,11.99-.34Z"/><path class="cls-2" d="m75.26,702.41c0-.25,0-.5,0-.76.18,0,.36-.06.52-.15,1.8.03,3.6.1,5.41.1,146.31,0,292.62,0,438.92.05,2.18,0,4.53-.75,6.58.71-.44.04-.89.08-1.33.12-.84-.03-1.68-.08-2.52-.08-149.19,0-298.39,0-447.58.01Z"/><path class="cls-2" d="m75.23,753.83c-.02-.22-.03-.44-.03-.66.21-.02.4-.08.59-.17,3.13-.02,6.26-.03,9.39-.05.72,0,1.45,0,2.17,0,1.68.05,3.36.14,5.04.14,145.74,0,291.48,0,437.23.01,1.44,0,2.88.1,4.32.15-.07.37-.15.73-.23,1.09-.62.05-1.24.09-1.86.14-.96-.03-1.92-.1-2.88-.1-150.79,0-301.57.01-452.36.02-.46-.2-.92-.39-1.38-.59Z"/><path class="cls-2" d="m75.23,624.72c.01-.27.02-.54.03-.81,148.71,0,297.42.01,446.14.01.84,0,1.68-.05,2.52-.08.2.05.41.09.61.12-.84,1.29-2.18.75-3.28.75-148.67.02-297.34.01-446.02,0Z"/><path class="cls-2" d="m531.05,573.44c-4.09.59-8.08-.63-12.17-.63-143.73.06-287.46.05-431.18.05-1.32,0-2.64.1-3.96.15-.48-.07-.96-.14-1.43-.22,0-.22.03-.43.07-.65.2-.04.39-.08.59-.14.3-.15.6-.3.9-.45,147.59,0,295.18,0,442.77,0,.3.15.6.3.9.45q3.37.17,3.51,1.43Z"/><path class="cls-2" d="m75.17,728.47c0-.4,0-.79,0-1.19,148.62,0,297.23-.01,445.85-.02,1.68,0,3.36-.06,5.05-.09.47.08,1.1,0,1.39.27.55.51-.1.85-.48.91-.94.14-1.91.18-2.86.18-149.05.01-298.1.01-447.15.01-.6,0-1.2-.04-1.8-.06Z"/></g><line class="cls-6" x1="74.69" y1="63.96" x2="74.69" y2="768.78"/></g></svg>