<?xml version="1.0" encoding="UTF-8"?>
<svg id="Layer_1" data-name="Layer 1" xmlns="http://www.w3.org/2000/svg" viewBox="0 0 500 750">
  <defs>
    <style>
      .cls-1 {
        opacity: .74;
      }

      .cls-2 {
        fill: #231f20;
      }

      .cls-3 {
        fill: #c6e8e9;
      }

      .cls-4 {
        fill: #808285;
      }

      .cls-5 {
        fill: #66bdb4;
      }

      .cls-6 {
        fill: #6d6e71;
      }
    </style>
  </defs>
  <rect class="cls-3" x="21.49" y="118.81" width="457.22" height="24.38"/>
  <rect class="cls-3" x="21.89" y="452.15" width="457.22" height="24.63"/>
  <g class="cls-1">
    <rect class="cls-5" x="21.49" y="34.45" width="457.22" height="60.25"/>
  </g>
  <path class="cls-4" d="M480.61,731.46H19.59V18.39h461.02v713.07ZM21.59,729.46h457.02V20.39H21.59v709.07Z"/>
  <g>
    <path class="cls-2" d="M151.37,75.58v-25.2h3.38v25.2h-3.38Z"/>
    <path class="cls-2" d="M161.02,75.58v-17.64h3.31v2.38c.76-1.03,1.64-1.78,2.65-2.23,1.01-.46,2.04-.68,3.1-.68,1.6,0,2.92.32,3.97.96,1.05.64,1.84,1.46,2.36,2.46s.78,2.02.78,3.06v11.7h-3.31v-10.67c0-1.33-.41-2.4-1.24-3.21-.83-.81-1.96-1.21-3.38-1.21-.94,0-1.77.21-2.51.63-.74.42-1.32,1.01-1.76,1.76-.43.75-.65,1.62-.65,2.62v10.1h-3.31Z"/>
    <path class="cls-2" d="M180.15,60.75v-2.81h4.54v2.81h-4.54ZM189.66,76.12c-1.64,0-2.97-.48-3.97-1.44-1-.96-1.5-2.44-1.5-4.45v-17.48h3.31v5.18h5.17v2.81h-5.17v8.66c0,1.34.24,2.29.73,2.83.49.55,1.2.82,2.13.82.42,0,.82-.05,1.2-.14.38-.1.71-.22,1-.38l.68,2.72c-.49.26-1.05.47-1.67.63-.62.16-1.26.23-1.91.23Z"/>
    <path class="cls-2" d="M202.45,76.12c-1.24,0-2.32-.23-3.24-.68-.92-.46-1.64-1.1-2.15-1.94-.51-.83-.77-1.82-.77-2.96,0-.94.24-1.79.73-2.56s1.25-1.42,2.28-1.93c1.03-.51,2.37-.85,4.01-1.03,1.64-.17,3.63-.14,5.96.1l.09,2.43c-1.8-.24-3.33-.33-4.59-.28-1.26.05-2.28.22-3.06.5-.78.28-1.35.65-1.72,1.12-.37.46-.55.98-.55,1.56,0,.92.33,1.65,1,2.17s1.58.78,2.75.78c1,0,1.89-.18,2.67-.55.79-.37,1.41-.88,1.86-1.53.46-.65.68-1.41.68-2.28v-4.91c0-.84-.18-1.57-.54-2.18-.36-.61-.89-1.09-1.6-1.42-.71-.34-1.58-.5-2.61-.5-.94,0-1.86.14-2.76.42-.91.28-1.78.73-2.62,1.34l-1.01-2.56c1.09-.74,2.22-1.27,3.38-1.57,1.16-.3,2.28-.45,3.35-.45,1.62,0,3,.25,4.14.76,1.14.51,2.01,1.28,2.61,2.3s.9,2.29.9,3.82v11.48h-3.06v-2.16c-.61.88-1.46,1.55-2.54,2.01-1.08.46-2.28.69-3.6.69Z"/>
    <path class="cls-2" d="M217.12,75.58v-25.92h3.31v15.89l7.51-7.61h3.96l-6.25,6.62,7.29,11.02h-4l-5.71-8.86-2.81,2.81v6.05h-3.31Z"/>
    <path class="cls-2" d="M244.25,76.12c-1.87,0-3.52-.39-4.96-1.17s-2.55-1.87-3.35-3.27c-.8-1.4-1.2-3.03-1.2-4.89,0-1.34.23-2.59.68-3.74.46-1.15,1.1-2.15,1.94-2.99.84-.84,1.82-1.49,2.94-1.96,1.12-.47,2.34-.7,3.66-.7,1.43,0,2.7.25,3.83.76,1.12.5,2.05,1.21,2.79,2.11.74.91,1.27,1.97,1.59,3.19.32,1.22.39,2.54.2,3.97h-14.36c-.04,1.18.2,2.2.72,3.09.52.88,1.26,1.57,2.24,2.06.98.49,2.14.74,3.48.74.98,0,1.94-.16,2.88-.47s1.76-.77,2.48-1.39l1.4,2.47c-.58.47-1.26.87-2.04,1.2-.79.33-1.61.58-2.46.75-.85.17-1.68.25-2.48.25ZM238.2,64.85h10.87c-.05-1.49-.51-2.65-1.39-3.48s-2.13-1.25-3.76-1.25-2.89.42-3.92,1.25c-1.03.83-1.63,2-1.8,3.48Z"/>
    <path class="cls-2" d="M266.17,75.58v-25.2h15.23v3.11h-11.84v7.92h10.76v3.06h-10.76v11.11h-3.38Z"/>
    <path class="cls-2" d="M293.39,76.12c-1.82,0-3.45-.43-4.88-1.28-1.43-.85-2.55-1.99-3.37-3.4-.82-1.42-1.22-2.98-1.22-4.68,0-1.26.23-2.45.7-3.58.47-1.13,1.13-2.13,1.98-3,.85-.87,1.85-1.55,3.01-2.04,1.15-.49,2.42-.74,3.8-.74,1.82,0,3.45.43,4.88,1.28,1.43.85,2.55,1.99,3.37,3.4.82,1.42,1.22,2.98,1.22,4.68,0,1.26-.23,2.45-.7,3.58s-1.13,2.12-1.98,2.99c-.85.86-1.85,1.55-3.01,2.04-1.15.5-2.42.75-3.8.75ZM293.41,73.13c1.18,0,2.22-.26,3.14-.78s1.64-1.26,2.17-2.21c.53-.95.79-2.08.79-3.38s-.26-2.42-.78-3.38c-.52-.96-1.25-1.7-2.17-2.21-.92-.52-1.98-.77-3.17-.77s-2.24.26-3.16.77c-.92.52-1.64,1.25-2.16,2.21-.52.96-.78,2.09-.78,3.38s.26,2.42.78,3.38c.52.95,1.25,1.69,2.17,2.21.92.52,1.98.78,3.17.78Z"/>
    <path class="cls-2" d="M307.03,75.58v-17.64h3.31v2.56c.71-1.15,1.55-1.96,2.53-2.42.98-.46,2.02-.69,3.12-.69.35,0,.68.02,1.01.05s.64.08.95.14l-.49,3.46c-.34-.11-.68-.19-1.03-.23-.35-.05-.69-.07-1.03-.07-1.48,0-2.69.46-3.65,1.37s-1.43,2.14-1.43,3.67v9.81h-3.31Z"/>
    <path class="cls-2" d="M321.43,75.58v-17.64h3.31v2.5c.49-.72,1.05-1.3,1.68-1.75.63-.44,1.3-.77,2-.98.7-.21,1.41-.31,2.13-.31,1.49,0,2.71.32,3.68.97s1.65,1.46,2.06,2.45c.94-1.34,1.99-2.25,3.15-2.72,1.16-.47,2.31-.7,3.44-.7,1.61,0,2.9.32,3.87.96.97.64,1.68,1.46,2.11,2.46.44,1,.66,2.02.66,3.06v11.7h-3.31v-10.73c0-1.3-.36-2.35-1.08-3.16-.72-.81-1.78-1.21-3.17-1.21-.91,0-1.73.2-2.47.6-.73.4-1.31.96-1.74,1.68-.43.72-.64,1.55-.64,2.48v10.33h-3.31v-10.73c0-1.3-.36-2.35-1.07-3.16-.71-.81-1.77-1.21-3.18-1.21-.9,0-1.72.2-2.45.6-.73.4-1.31.96-1.74,1.68-.43.72-.64,1.55-.64,2.48v10.33h-3.31Z"/>
  </g>
  <g>
    <path class="cls-2" d="M36.33,199.82v-12.6h1.58l6.75,9.63v-9.63h1.66v12.6h-1.58l-6.74-9.74v9.74h-1.67Z"/>
    <path class="cls-2" d="M51.88,200.09c-.62,0-1.16-.11-1.62-.34-.46-.23-.82-.55-1.08-.97s-.38-.91-.38-1.48c0-.47.12-.9.36-1.28.24-.39.62-.71,1.14-.96.52-.25,1.18-.43,2.01-.51.82-.09,1.81-.07,2.98.05l.04,1.21c-.9-.12-1.67-.17-2.29-.14-.63.03-1.14.11-1.53.25-.39.14-.68.33-.86.56s-.27.49-.27.78c0,.46.17.82.5,1.08.33.26.79.39,1.37.39.5,0,.94-.09,1.34-.27s.7-.44.93-.77.34-.71.34-1.14v-2.46c0-.42-.09-.78-.27-1.09-.18-.31-.45-.54-.8-.71s-.79-.25-1.31-.25c-.47,0-.93.07-1.38.21s-.89.36-1.31.67l-.5-1.28c.55-.37,1.11-.63,1.69-.78s1.14-.23,1.67-.23c.81,0,1.5.13,2.07.38.57.25,1,.64,1.3,1.15.3.51.45,1.15.45,1.91v5.74h-1.53v-1.08c-.31.44-.73.77-1.27,1s-1.14.35-1.8.35Z"/>
    <path class="cls-2" d="M59.22,199.82v-8.82h1.66v1.25c.25-.36.53-.65.84-.87.31-.22.65-.39,1-.49.35-.1.71-.16,1.07-.16.74,0,1.36.16,1.84.49s.83.73,1.03,1.22c.47-.67.99-1.12,1.57-1.36.58-.23,1.15-.35,1.72-.35.8,0,1.45.16,1.94.48.49.32.84.73,1.06,1.23.22.5.33,1.01.33,1.53v5.85h-1.66v-5.36c0-.65-.18-1.17-.54-1.58-.36-.41-.89-.61-1.58-.61-.46,0-.87.1-1.23.3-.37.2-.66.48-.87.84-.21.36-.32.77-.32,1.24v5.17h-1.66v-5.36c0-.65-.18-1.17-.54-1.58-.36-.41-.89-.61-1.59-.61-.45,0-.86.1-1.22.3-.37.2-.66.48-.87.84-.21.36-.32.77-.32,1.24v5.17h-1.66Z"/>
    <path class="cls-2" d="M80.01,200.09c-.94,0-1.76-.19-2.48-.58s-1.27-.93-1.67-1.63c-.4-.7-.6-1.51-.6-2.44,0-.67.11-1.3.34-1.87.23-.58.55-1.07.97-1.49s.91-.75,1.47-.98c.56-.23,1.17-.35,1.83-.35.71,0,1.35.13,1.91.38.56.25,1.03.6,1.39,1.06.37.45.63.98.8,1.59.16.61.19,1.27.1,1.98h-7.18c-.02.59.1,1.1.36,1.54.26.44.63.78,1.12,1.03.49.25,1.07.37,1.74.37.49,0,.97-.08,1.44-.23.47-.16.88-.39,1.24-.69l.7,1.23c-.29.23-.63.43-1.02.6-.39.17-.8.29-1.23.37-.43.08-.84.13-1.24.13ZM76.98,194.45h5.44c-.02-.74-.25-1.32-.69-1.74s-1.07-.63-1.88-.63-1.45.21-1.96.63-.82,1-.9,1.74Z"/>
    <path class="cls-2" d="M87.39,193.05c-.35,0-.65-.11-.9-.33-.25-.22-.38-.51-.38-.87,0-.24.06-.45.17-.63s.27-.32.46-.42c.2-.1.41-.15.64-.15.35,0,.65.11.9.33.25.22.37.51.37.87,0,.24-.06.45-.17.63-.11.18-.27.32-.46.42s-.4.15-.64.15ZM87.39,200.09c-.35,0-.65-.11-.9-.33s-.38-.51-.38-.87c0-.24.06-.45.17-.63.11-.18.27-.32.46-.42.2-.1.41-.15.64-.15.35,0,.65.11.9.33.25.22.37.51.37.87,0,.24-.06.45-.17.63-.11.18-.27.32-.46.42-.19.1-.4.15-.64.15Z"/>
  </g>
  <g>
    <path class="cls-2" d="M362.31,257.16l4.96-12.6h1.75l5.11,12.6h-1.91l-1.25-3.15h-5.62l-1.2,3.15h-1.85ZM365.84,252.52h4.64l-2.38-5.87-2.27,5.87Z"/>
    <path class="cls-2" d="M379.29,261.21c-.66,0-1.25-.06-1.78-.18-.53-.12-.98-.29-1.34-.51-.37-.22-.65-.49-.85-.8-.19-.31-.29-.66-.29-1.04,0-.31.08-.6.25-.87s.41-.5.74-.7c.33-.2.74-.34,1.23-.44-.36-.17-.63-.37-.8-.59-.17-.22-.26-.48-.26-.77,0-.25.07-.48.21-.69.14-.21.34-.4.61-.58.26-.17.58-.31.94-.42.36-.11.76-.18,1.2-.21l.4.78c-.38,0-.71.02-.99.09-.28.07-.5.16-.65.28-.15.12-.23.27-.23.44,0,.23.13.39.38.48s.6.16,1.03.19l1.51.12c.75.06,1.39.18,1.91.37.52.19.92.44,1.2.77.28.33.41.75.41,1.25,0,.43-.12.82-.35,1.19-.23.37-.56.69-.99.96s-.94.48-1.53.63c-.59.15-1.25.23-1.97.23ZM379.37,254.34c-.72,0-1.37-.14-1.95-.42-.58-.28-1.04-.66-1.38-1.13-.34-.47-.51-1-.51-1.59s.17-1.11.51-1.58.8-.85,1.38-1.13c.58-.28,1.23-.42,1.95-.42s1.37.14,1.95.42c.58.28,1.04.66,1.38,1.13s.51,1,.51,1.58-.17,1.12-.51,1.59c-.34.47-.8.85-1.37,1.13-.58.28-1.23.42-1.95.42ZM379.41,260c.95,0,1.7-.15,2.25-.44s.82-.67.82-1.13c0-.35-.19-.63-.56-.83-.38-.2-.94-.32-1.7-.38l-1.6-.12c-.42.03-.78.1-1.08.23s-.53.28-.69.48c-.16.2-.24.42-.24.68,0,.3.11.56.34.79.23.23.55.41.97.54s.91.19,1.49.19ZM379.37,253.03c.44,0,.84-.08,1.17-.23.34-.15.6-.37.8-.64.19-.27.29-.59.29-.96,0-.54-.21-.98-.62-1.31s-.96-.5-1.63-.5c-.44,0-.84.08-1.17.23-.34.15-.6.37-.79.64-.19.27-.28.59-.28.95,0,.54.21.98.63,1.32.42.34.96.51,1.62.51ZM380.76,249.7l-.61-1.21,4.55-.15-.02,1.4-3.92-.04Z"/>
    <path class="cls-2" d="M390.46,257.43c-.94,0-1.76-.19-2.48-.58s-1.28-.93-1.67-1.63c-.4-.7-.6-1.51-.6-2.44,0-.67.11-1.3.34-1.87.23-.58.55-1.07.97-1.49s.91-.75,1.47-.98c.56-.23,1.17-.35,1.83-.35.71,0,1.35.13,1.91.38.56.25,1.03.6,1.39,1.06.37.45.63.98.8,1.59s.2,1.27.1,1.98h-7.18c-.02.59.1,1.1.36,1.54.26.44.63.78,1.12,1.03s1.07.37,1.74.37c.49,0,.97-.08,1.44-.23.47-.16.88-.39,1.24-.69l.7,1.23c-.29.23-.63.43-1.02.6-.39.17-.8.29-1.23.37-.43.08-.84.13-1.24.13ZM387.43,251.79h5.44c-.02-.74-.25-1.32-.69-1.74-.44-.42-1.07-.63-1.88-.63s-1.45.21-1.96.63c-.52.42-.82,1-.9,1.74Z"/>
    <path class="cls-2" d="M397.84,250.39c-.35,0-.65-.11-.9-.33-.25-.22-.38-.51-.38-.87,0-.24.06-.45.17-.63.11-.18.27-.32.46-.42s.41-.15.64-.15c.35,0,.65.11.9.33.25.22.37.51.37.87,0,.24-.06.45-.17.63-.11.18-.27.32-.46.42-.19.1-.4.15-.64.15ZM397.84,257.43c-.35,0-.65-.11-.9-.33s-.38-.51-.38-.87c0-.24.06-.45.17-.63.11-.18.27-.32.46-.42s.41-.15.64-.15c.35,0,.65.11.9.33.25.22.37.51.37.87,0,.24-.06.45-.17.63-.11.18-.27.32-.46.42-.19.1-.4.15-.64.15Z"/>
  </g>
  <g>
    <path class="cls-2" d="M36.33,253.78v-12.6h3.82c1.24,0,2.33.27,3.28.81.95.54,1.7,1.28,2.24,2.23.54.95.81,2.04.81,3.27,0,.92-.15,1.76-.46,2.53s-.75,1.44-1.31,1.99c-.56.56-1.23.99-2.01,1.3-.77.31-1.62.46-2.55.46h-3.82ZM38.02,252.2h1.85c.73,0,1.39-.11,1.98-.33.59-.22,1.1-.53,1.53-.95.43-.41.75-.91.99-1.48s.35-1.23.35-1.96c0-.97-.2-1.8-.6-2.51-.4-.71-.96-1.26-1.69-1.64-.72-.39-1.57-.58-2.55-.58h-1.85v9.45Z"/>
    <path class="cls-2" d="M55.07,254.05c-.94,0-1.81-.17-2.62-.5-.8-.33-1.5-.8-2.1-1.39-.59-.59-1.06-1.29-1.39-2.09s-.49-1.66-.49-2.59.16-1.8.49-2.6.79-1.49,1.39-2.09c.59-.59,1.29-1.06,2.1-1.39.8-.33,1.68-.5,2.62-.5s1.8.17,2.6.5c.8.34,1.5.8,2.1,1.4.6.6,1.07,1.3,1.4,2.09.33.8.5,1.65.5,2.57s-.17,1.79-.5,2.59-.8,1.49-1.4,2.09c-.6.59-1.3,1.06-2.1,1.39-.8.33-1.67.5-2.6.5ZM55.07,252.44c.67,0,1.3-.12,1.89-.35s1.1-.57,1.54-1,.78-.96,1.03-1.57c.25-.61.37-1.29.37-2.03,0-1-.22-1.87-.65-2.61-.43-.74-1.01-1.32-1.74-1.73-.73-.41-1.54-.62-2.44-.62-.68,0-1.31.12-1.89.35-.58.23-1.1.57-1.54,1-.44.44-.78.96-1.03,1.57s-.37,1.29-.37,2.04c0,1,.21,1.87.64,2.61.43.74,1.01,1.32,1.74,1.73.73.41,1.55.62,2.45.62Z"/>
    <path class="cls-2" d="M64.26,253.78v-12.6h4.14c1.18,0,2.14.27,2.88.81s1.1,1.33,1.1,2.37c0,.4-.1.79-.3,1.16-.2.37-.45.69-.76.97s-.63.47-.96.58c.69.2,1.27.58,1.74,1.14.47.56.71,1.25.71,2.08,0,.68-.17,1.28-.51,1.8s-.82.93-1.45,1.24c-.63.3-1.37.45-2.23.45h-4.37ZM65.95,246.63h2.17c.52,0,.98-.08,1.36-.25s.69-.41.9-.72c.22-.31.32-.69.32-1.14,0-.64-.23-1.12-.68-1.45s-1.1-.5-1.94-.5h-2.14v4.07ZM65.95,252.39h2.37c.93,0,1.62-.18,2.07-.54.45-.36.68-.91.68-1.66s-.23-1.28-.69-1.66c-.46-.38-1.18-.57-2.14-.57h-2.29v4.43Z"/>
    <path class="cls-2" d="M76.44,247.01c-.35,0-.65-.11-.9-.33-.25-.22-.38-.51-.38-.87,0-.24.06-.45.17-.63s.27-.32.46-.42c.2-.1.41-.15.64-.15.35,0,.65.11.9.33.25.22.37.51.37.87,0,.24-.06.45-.17.63-.11.18-.27.32-.46.42s-.4.15-.64.15ZM76.44,254.05c-.35,0-.65-.11-.9-.33s-.38-.51-.38-.87c0-.24.06-.45.17-.63.11-.18.27-.32.46-.42.2-.1.41-.15.64-.15.35,0,.65.11.9.33.25.22.37.51.37.87,0,.24-.06.45-.17.63-.11.18-.27.32-.46.42-.19.1-.4.15-.64.15Z"/>
  </g>
  <g>
    <path class="cls-2" d="M42.04,375.68c-1.31,0-2.45-.27-3.42-.81s-1.73-1.31-2.26-2.29-.81-2.14-.81-3.46c0-.95.16-1.83.48-2.63.32-.8.77-1.5,1.35-2.08.58-.59,1.27-1.04,2.06-1.37.79-.32,1.66-.49,2.61-.49s1.74.12,2.44.35c.7.23,1.3.56,1.8.99l-.9,1.38c-.41-.37-.89-.64-1.43-.82-.54-.18-1.13-.27-1.79-.27-.74,0-1.41.11-2.01.34s-1.11.56-1.53.99c-.42.43-.75.95-.98,1.55s-.34,1.29-.34,2.05c0,1.04.2,1.93.61,2.66.41.74.98,1.3,1.72,1.69s1.62.58,2.64.58c.65,0,1.28-.1,1.89-.29s1.17-.51,1.7-.96l.79,1.44c-.62.49-1.31.85-2.07,1.09-.77.24-1.61.36-2.54.36Z"/>
    <path class="cls-2" d="M52,375.68c-.79,0-1.44-.16-1.95-.48-.51-.32-.9-.73-1.15-1.24-.25-.51-.38-1.06-.38-1.64v-5.73h1.66v5.38c0,.65.2,1.17.59,1.57.39.4.93.6,1.62.6.44,0,.85-.1,1.21-.31.36-.2.65-.49.86-.86s.32-.8.32-1.28v-5.1h1.66v8.82h-1.52v-1.08c-.37.44-.79.78-1.28,1.01-.49.23-1.03.34-1.63.34Z"/>
    <path class="cls-2" d="M59.3,375.41v-8.82h1.66v1.28c.35-.58.78-.98,1.26-1.21.49-.23,1.01-.35,1.56-.35.17,0,.34,0,.5.03.16.02.32.04.48.07l-.24,1.73c-.17-.05-.34-.09-.51-.12-.17-.02-.35-.04-.51-.04-.74,0-1.35.23-1.82.68-.48.46-.72,1.07-.72,1.84v4.9h-1.66Z"/>
    <path class="cls-2" d="M66.5,375.41v-8.82h1.66v1.28c.35-.58.78-.98,1.26-1.21.49-.23,1.01-.35,1.56-.35.17,0,.34,0,.5.03.16.02.32.04.48.07l-.24,1.73c-.17-.05-.34-.09-.51-.12-.17-.02-.35-.04-.51-.04-.74,0-1.35.23-1.82.68-.48.46-.72,1.07-.72,1.84v4.9h-1.66Z"/>
    <path class="cls-2" d="M77.49,375.68c-.94,0-1.76-.19-2.48-.58s-1.27-.93-1.67-1.63c-.4-.7-.6-1.51-.6-2.44,0-.67.11-1.3.34-1.87.23-.58.55-1.07.97-1.49s.91-.75,1.47-.98c.56-.23,1.17-.35,1.83-.35.71,0,1.35.13,1.91.38.56.25,1.03.6,1.39,1.06.37.45.63.98.8,1.59.16.61.19,1.27.1,1.98h-7.18c-.02.59.1,1.1.36,1.54.26.44.63.78,1.12,1.03.49.25,1.07.37,1.74.37.49,0,.97-.08,1.44-.23.47-.16.88-.39,1.24-.69l.7,1.23c-.29.23-.63.43-1.02.6-.39.17-.8.29-1.23.37-.43.08-.84.13-1.24.13ZM74.46,370.04h5.44c-.02-.74-.25-1.32-.69-1.74s-1.07-.63-1.88-.63-1.45.21-1.96.63-.82,1-.9,1.74Z"/>
    <path class="cls-2" d="M83.69,375.41v-8.82h1.66v1.19c.38-.52.82-.89,1.32-1.12.5-.23,1.02-.34,1.55-.34.8,0,1.46.16,1.98.48s.92.73,1.18,1.23c.26.5.39,1.01.39,1.53v5.85h-1.66v-5.34c0-.67-.21-1.2-.62-1.61-.41-.41-.98-.61-1.69-.61-.47,0-.89.1-1.26.31s-.66.5-.88.88c-.22.38-.32.81-.32,1.31v5.05h-1.66Z"/>
    <path class="cls-2" d="M93.26,367.99v-1.4h2.27v1.4h-2.27ZM98.01,375.68c-.82,0-1.48-.24-1.98-.72s-.75-1.22-.75-2.22v-8.74h1.66v2.59h2.58v1.4h-2.58v4.33c0,.67.12,1.14.36,1.42.24.27.6.41,1.07.41.21,0,.41-.02.6-.07.19-.05.36-.11.5-.19l.34,1.36c-.25.13-.53.24-.84.31-.31.08-.63.12-.95.12Z"/>
    <path class="cls-2" d="M105.28,375.41l4.96-12.6h1.76l5.11,12.6h-1.91l-1.25-3.15h-5.62l-1.2,3.15h-1.85ZM108.81,370.77h4.64l-2.38-5.87-2.27,5.87Z"/>
    <path class="cls-2" d="M122.33,375.68c-.88,0-1.65-.21-2.31-.62-.67-.41-1.19-.97-1.56-1.68s-.56-1.5-.56-2.39c0-.65.11-1.25.32-1.82s.52-1.06.91-1.49c.4-.43.87-.77,1.41-1.01.54-.24,1.15-.36,1.81-.36.85,0,1.57.17,2.17.51.6.34,1.1.8,1.49,1.38l-.33.37v-6.13h1.66v12.96h-1.52v-2.07l.24.38c-.34.56-.81,1.03-1.41,1.4s-1.37.56-2.32.56ZM122.63,374.18c.59,0,1.12-.13,1.58-.39.46-.26.82-.63,1.08-1.11s.4-1.04.4-1.69-.13-1.21-.4-1.69-.63-.85-1.08-1.11-.99-.39-1.58-.39-1.12.13-1.58.39c-.46.26-.82.63-1.08,1.11-.26.48-.39,1.04-.39,1.69s.13,1.21.39,1.69c.26.48.62.85,1.08,1.11.46.26.99.39,1.57.39Z"/>
    <path class="cls-2" d="M133.85,375.68c-.88,0-1.65-.21-2.31-.62-.67-.41-1.19-.97-1.56-1.68s-.56-1.5-.56-2.39c0-.65.11-1.25.32-1.82s.52-1.06.91-1.49c.4-.43.87-.77,1.41-1.01.54-.24,1.15-.36,1.81-.36.85,0,1.57.17,2.17.51.6.34,1.1.8,1.49,1.38l-.33.37v-6.13h1.66v12.96h-1.52v-2.07l.24.38c-.34.56-.81,1.03-1.41,1.4s-1.37.56-2.32.56ZM134.15,374.18c.59,0,1.12-.13,1.58-.39.46-.26.82-.63,1.08-1.11s.4-1.04.4-1.69-.13-1.21-.4-1.69-.63-.85-1.08-1.11-.99-.39-1.58-.39-1.12.13-1.58.39c-.46.26-.82.63-1.08,1.11-.26.48-.39,1.04-.39,1.69s.13,1.21.39,1.69c.26.48.62.85,1.08,1.11.46.26.99.39,1.57.39Z"/>
    <path class="cls-2" d="M141.72,375.41v-8.82h1.66v1.28c.35-.58.78-.98,1.26-1.21.49-.23,1.01-.35,1.56-.35.17,0,.34,0,.5.03.16.02.32.04.48.07l-.24,1.73c-.17-.05-.34-.09-.51-.12-.17-.02-.35-.04-.51-.04-.74,0-1.35.23-1.82.68-.48.46-.72,1.07-.72,1.84v4.9h-1.66Z"/>
    <path class="cls-2" d="M152.71,375.68c-.94,0-1.76-.19-2.48-.58s-1.27-.93-1.67-1.63c-.4-.7-.6-1.51-.6-2.44,0-.67.11-1.3.34-1.87.23-.58.55-1.07.97-1.49s.91-.75,1.47-.98c.56-.23,1.17-.35,1.83-.35.71,0,1.35.13,1.91.38.56.25,1.03.6,1.39,1.06.37.45.63.98.8,1.59.16.61.19,1.27.1,1.98h-7.18c-.02.59.1,1.1.36,1.54.26.44.63.78,1.12,1.03.49.25,1.07.37,1.74.37.49,0,.97-.08,1.44-.23.47-.16.88-.39,1.24-.69l.7,1.23c-.29.23-.63.43-1.02.6-.39.17-.8.29-1.23.37-.43.08-.84.13-1.24.13ZM149.69,370.04h5.44c-.02-.74-.25-1.32-.69-1.74s-1.07-.63-1.88-.63-1.45.21-1.96.63-.82,1-.9,1.74Z"/>
    <path class="cls-2" d="M161.76,375.67c-.7,0-1.35-.1-1.98-.31s-1.14-.48-1.55-.83l.68-1.25c.39.32.84.58,1.34.76s1,.27,1.51.27c.62,0,1.11-.11,1.46-.34.35-.23.52-.54.52-.96,0-.38-.15-.67-.45-.85-.3-.19-.86-.38-1.67-.58-1.08-.25-1.86-.57-2.35-.99-.49-.41-.73-.98-.73-1.71,0-.52.14-.97.43-1.37s.68-.71,1.18-.94,1.08-.34,1.73-.34,1.25.09,1.81.27,1.05.45,1.46.8l-.64,1.27c-.21-.2-.46-.38-.74-.52s-.59-.26-.91-.34c-.32-.08-.65-.12-.97-.12-.53,0-.97.11-1.31.32-.34.22-.51.52-.51.9s.16.7.49.88.87.37,1.63.55c1.1.25,1.9.57,2.38.99.48.41.72.98.72,1.7,0,.56-.15,1.04-.44,1.45-.29.41-.71.73-1.23.95-.53.23-1.15.34-1.85.34Z"/>
    <path class="cls-2" d="M170.31,375.67c-.7,0-1.35-.1-1.98-.31s-1.14-.48-1.55-.83l.68-1.25c.39.32.84.58,1.34.76s1,.27,1.51.27c.62,0,1.11-.11,1.46-.34.35-.23.52-.54.52-.96,0-.38-.15-.67-.45-.85-.3-.19-.86-.38-1.67-.58-1.08-.25-1.86-.57-2.35-.99-.49-.41-.73-.98-.73-1.71,0-.52.14-.97.43-1.37s.68-.71,1.18-.94,1.08-.34,1.73-.34,1.25.09,1.81.27,1.05.45,1.46.8l-.64,1.27c-.21-.2-.46-.38-.74-.52s-.59-.26-.91-.34c-.32-.08-.65-.12-.97-.12-.53,0-.97.11-1.31.32-.34.22-.51.52-.51.9s.16.7.49.88.87.37,1.63.55c1.1.25,1.9.57,2.38.99.48.41.72.98.72,1.7,0,.56-.15,1.04-.44,1.45-.29.41-.71.73-1.23.95-.53.23-1.15.34-1.85.34Z"/>
    <path class="cls-2" d="M177.37,368.64c-.35,0-.65-.11-.9-.33-.25-.22-.38-.51-.38-.87,0-.24.06-.45.17-.63s.27-.32.46-.42c.2-.1.41-.15.64-.15.35,0,.65.11.9.33.25.22.37.51.37.87,0,.24-.06.45-.17.63-.11.18-.27.32-.46.42s-.4.15-.64.15ZM177.37,375.68c-.35,0-.65-.11-.9-.33s-.38-.51-.38-.87c0-.24.06-.45.17-.63.11-.18.27-.32.46-.42.2-.1.41-.15.64-.15.35,0,.65.11.9.33.25.22.37.51.37.87,0,.24-.06.45-.17.63-.11.18-.27.32-.46.42-.19.1-.4.15-.64.15Z"/>
  </g>
  <g>
    <line class="cls-6" x1="92.45" y1="200.09" x2="470.83" y2="200.09"/>
    <rect class="cls-4" x="92.45" y="199.09" width="378.38" height="2"/>
  </g>
  <rect class="cls-4" x="82.67" y="256.02" width="126" height="2"/>
  <g>
    <line class="cls-6" x1="407.22" y1="257.02" x2="468.87" y2="257.02"/>
    <rect class="cls-4" x="407.22" y="256.02" width="61.66" height="2"/>
  </g>
  <g>
    <path class="cls-2" d="M220.56,255.8c-.85,0-1.67-.12-2.48-.36-.81-.24-1.49-.58-2.04-1.02l.85-1.32c.31.26.67.48,1.06.66s.82.32,1.26.41c.44.1.89.14,1.35.14.89,0,1.6-.17,2.15-.52.55-.35.82-.86.82-1.53,0-.49-.18-.91-.55-1.25-.37-.34-1.04-.65-2.02-.94l-1.37-.4c-1.16-.34-2-.78-2.53-1.32-.53-.55-.8-1.23-.8-2.06,0-.55.11-1.05.33-1.49.22-.44.53-.83.94-1.15.41-.32.88-.57,1.43-.73.55-.17,1.15-.25,1.8-.25.81,0,1.56.12,2.26.35.7.23,1.28.55,1.73.94l-.87,1.27c-.27-.23-.58-.42-.93-.59-.35-.16-.72-.29-1.12-.38-.4-.09-.8-.13-1.21-.13-.55,0-1.03.08-1.44.24s-.74.4-.97.7c-.23.31-.35.68-.35,1.12,0,.31.07.59.23.82.15.24.41.45.78.65.37.2.88.39,1.54.58l1.46.43c1.12.33,1.95.76,2.48,1.3.53.54.79,1.24.79,2.11,0,.73-.18,1.38-.54,1.93-.36.55-.88.99-1.56,1.3-.68.31-1.52.46-2.49.46Z"/>
    <path class="cls-2" d="M231.5,255.8c-.94,0-1.76-.19-2.48-.58s-1.27-.93-1.67-1.63c-.4-.7-.6-1.51-.6-2.44,0-.67.11-1.3.34-1.87.23-.58.55-1.07.97-1.49s.91-.75,1.47-.98c.56-.23,1.17-.35,1.83-.35.71,0,1.35.13,1.91.38.56.25,1.03.6,1.39,1.06.37.45.63.98.8,1.59.16.61.19,1.27.1,1.98h-7.18c-.02.59.1,1.1.36,1.54.26.44.63.78,1.12,1.03.49.25,1.07.37,1.74.37.49,0,.97-.08,1.44-.23.47-.16.88-.39,1.24-.69l.7,1.23c-.29.23-.63.43-1.02.6-.39.17-.8.29-1.23.37-.43.08-.84.13-1.24.13ZM228.48,250.16h5.44c-.02-.74-.25-1.32-.69-1.74s-1.07-.63-1.88-.63-1.45.21-1.96.63-.82,1-.9,1.74Z"/>
    <path class="cls-2" d="M236.45,255.54l3.2-4.47-3.01-4.36h2.09l2.04,3.14,1.97-3.14h2.02l-2.92,4.3,3.18,4.52h-2.12l-2.2-3.31-2.23,3.3-2.02.02Z"/>
    <path class="cls-2" d="M247.94,248.76c-.35,0-.65-.11-.9-.33-.25-.22-.38-.51-.38-.87,0-.24.06-.45.17-.63s.27-.32.46-.42c.2-.1.41-.15.64-.15.35,0,.65.11.9.33.25.22.37.51.37.87,0,.24-.06.45-.17.63-.11.18-.27.32-.46.42s-.4.15-.64.15ZM247.94,255.8c-.35,0-.65-.11-.9-.33s-.38-.51-.38-.87c0-.24.06-.45.17-.63.11-.18.27-.32.46-.42.2-.1.41-.15.64-.15.35,0,.65.11.9.33.25.22.37.51.37.87,0,.24-.06.45-.17.63-.11.18-.27.32-.46.42-.19.1-.4.15-.64.15Z"/>
  </g>
  <g>
    <path class="cls-2" d="M178.88,469.81v-12.6h4.64c.85,0,1.59.15,2.21.45s1.1.73,1.44,1.28c.34.55.51,1.21.51,1.96,0,.63-.14,1.19-.41,1.67-.28.48-.67.88-1.17,1.18-.5.31-1.09.51-1.76.61l3.93,5.45h-2.07l-3.71-5.23h-1.92v5.23h-1.69ZM180.57,463.13h2.63c.88,0,1.56-.19,2.05-.57.49-.38.73-.91.73-1.59s-.22-1.28-.65-1.68c-.43-.41-1.09-.61-1.96-.61h-2.8v4.46Z"/>
    <path class="cls-2" d="M194.41,470.08c-.94,0-1.76-.19-2.48-.58-.72-.39-1.27-.93-1.67-1.63-.4-.7-.6-1.51-.6-2.44,0-.67.11-1.3.34-1.87.23-.58.55-1.07.97-1.49s.91-.75,1.47-.98c.56-.23,1.17-.35,1.83-.35.71,0,1.35.13,1.91.38.56.25,1.03.6,1.39,1.06.37.45.63.98.8,1.59.16.61.19,1.27.1,1.98h-7.18c-.02.59.1,1.1.36,1.54.26.44.63.78,1.12,1.03.49.25,1.07.37,1.74.37.49,0,.97-.08,1.44-.23.47-.16.88-.39,1.24-.69l.7,1.23c-.29.23-.63.43-1.02.6-.39.17-.8.29-1.23.37-.43.08-.84.13-1.24.13ZM191.39,464.45h5.44c-.02-.74-.25-1.32-.69-1.74s-1.07-.63-1.88-.63-1.45.21-1.96.63-.82,1-.9,1.74Z"/>
    <path class="cls-2" d="M203.04,470.08c-.62,0-1.16-.11-1.62-.34-.46-.23-.82-.55-1.08-.97s-.38-.91-.38-1.48c0-.47.12-.9.36-1.28.24-.39.62-.71,1.14-.96.52-.25,1.18-.43,2.01-.51.82-.09,1.81-.07,2.98.05l.04,1.21c-.9-.12-1.67-.17-2.29-.14-.63.03-1.14.11-1.53.25-.39.14-.68.33-.86.56-.18.23-.27.49-.27.78,0,.46.17.82.5,1.08s.79.39,1.37.39c.5,0,.94-.09,1.34-.27.39-.18.7-.44.93-.77.23-.33.34-.71.34-1.14v-2.46c0-.42-.09-.78-.27-1.09-.18-.31-.45-.54-.8-.71-.35-.17-.79-.25-1.31-.25-.47,0-.93.07-1.38.21s-.89.36-1.31.67l-.5-1.28c.55-.37,1.11-.63,1.69-.78.58-.15,1.14-.22,1.67-.22.81,0,1.5.13,2.07.38.57.26,1,.64,1.3,1.15.3.51.45,1.15.45,1.91v5.74h-1.53v-1.08c-.31.44-.73.77-1.27,1-.54.23-1.14.35-1.8.35Z"/>
    <path class="cls-2" d="M213.23,470.07c-.7,0-1.35-.1-1.98-.31s-1.14-.48-1.55-.83l.68-1.25c.39.32.84.58,1.34.76.5.18,1,.27,1.51.27.62,0,1.11-.11,1.46-.34.35-.22.52-.54.52-.96,0-.38-.15-.67-.45-.86-.3-.19-.86-.38-1.67-.58-1.08-.25-1.86-.57-2.35-.99-.49-.41-.73-.98-.73-1.71,0-.52.14-.97.43-1.37s.68-.71,1.18-.94c.5-.23,1.08-.34,1.73-.34s1.25.09,1.81.27c.56.18,1.05.45,1.46.8l-.64,1.27c-.21-.2-.46-.38-.74-.52-.29-.14-.59-.26-.91-.34-.32-.08-.65-.12-.97-.12-.53,0-.97.11-1.31.32-.34.22-.51.52-.51.9s.16.7.49.88c.33.19.87.37,1.63.55,1.1.25,1.9.57,2.38.99s.72.98.72,1.7c0,.56-.15,1.04-.44,1.45s-.71.73-1.23.95c-.53.22-1.15.34-1.85.34Z"/>
    <path class="cls-2" d="M223.06,470.08c-.91,0-1.73-.21-2.44-.64s-1.27-.99-1.68-1.7c-.41-.71-.61-1.49-.61-2.34,0-.63.12-1.23.35-1.79.23-.56.56-1.06.99-1.5.43-.44.93-.78,1.5-1.02.58-.25,1.21-.37,1.9-.37.91,0,1.72.21,2.44.64.71.43,1.27.99,1.68,1.7.41.71.61,1.49.61,2.34,0,.63-.12,1.23-.35,1.79-.23.56-.56,1.06-.99,1.49-.43.43-.93.77-1.5,1.02-.58.25-1.21.37-1.9.37ZM223.07,468.59c.59,0,1.11-.13,1.57-.39.46-.26.82-.63,1.08-1.11.26-.48.4-1.04.4-1.69s-.13-1.21-.39-1.69c-.26-.48-.62-.85-1.08-1.11s-.99-.39-1.58-.39-1.12.13-1.58.39c-.46.26-.82.63-1.08,1.11-.26.48-.39,1.04-.39,1.69s.13,1.21.39,1.69c.26.48.62.85,1.08,1.11.46.26.99.39,1.58.39Z"/>
    <path class="cls-2" d="M229.88,469.81v-8.82h1.66v1.19c.38-.52.82-.89,1.32-1.12.5-.23,1.02-.34,1.55-.34.8,0,1.46.16,1.98.48s.92.73,1.18,1.23c.26.5.39,1.01.39,1.53v5.85h-1.66v-5.34c0-.67-.21-1.2-.62-1.61s-.98-.61-1.69-.61c-.47,0-.89.1-1.26.31s-.66.5-.88.88c-.22.38-.32.81-.32,1.31v5.05h-1.66Z"/>
    <path class="cls-2" d="M245.49,469.81v-12.6h7.61v1.56h-5.92v3.96h5.38v1.53h-5.38v5.55h-1.69Z"/>
    <path class="cls-2" d="M259.1,470.08c-.91,0-1.73-.21-2.44-.64s-1.27-.99-1.68-1.7-.61-1.49-.61-2.34c0-.63.12-1.23.35-1.79.23-.56.56-1.06.99-1.5.43-.44.93-.78,1.5-1.02.58-.25,1.21-.37,1.9-.37.91,0,1.72.21,2.44.64.71.43,1.27.99,1.68,1.7s.61,1.49.61,2.34c0,.63-.12,1.23-.35,1.79-.23.56-.56,1.06-.99,1.49-.43.43-.93.77-1.5,1.02-.58.25-1.21.37-1.9.37ZM259.11,468.59c.59,0,1.11-.13,1.57-.39.46-.26.82-.63,1.08-1.11.26-.48.4-1.04.4-1.69s-.13-1.21-.39-1.69c-.26-.48-.62-.85-1.08-1.11s-.99-.39-1.58-.39-1.12.13-1.58.39c-.46.26-.82.63-1.08,1.11-.26.48-.39,1.04-.39,1.69s.13,1.21.39,1.69c.26.48.62.85,1.08,1.11.46.26.99.39,1.58.39Z"/>
    <path class="cls-2" d="M265.92,469.81v-8.82h1.66v1.28c.35-.58.78-.98,1.26-1.21.49-.23,1.01-.35,1.56-.35.17,0,.34,0,.5.03.16.02.32.04.48.07l-.24,1.73c-.17-.05-.34-.09-.51-.12-.17-.02-.35-.04-.51-.04-.74,0-1.35.23-1.82.68s-.72,1.07-.72,1.84v4.91h-1.66Z"/>
    <path class="cls-2" d="M281.26,469.81l-4.91-12.6h1.91l3.9,10.28,3.73-10.28h1.85l-4.75,12.6h-1.73Z"/>
    <path class="cls-2" d="M290.17,459.33c-.32,0-.59-.1-.82-.31-.23-.21-.34-.48-.34-.8s.11-.59.34-.8c.23-.21.5-.31.82-.31s.58.1.81.31.34.47.34.8-.11.59-.34.8-.49.31-.81.31ZM289.33,469.81v-8.82h1.66v8.82h-1.66Z"/>
    <path class="cls-2" d="M296.7,470.07c-.7,0-1.35-.1-1.98-.31s-1.14-.48-1.55-.83l.68-1.25c.39.32.83.58,1.34.76.5.18,1,.27,1.51.27.62,0,1.11-.11,1.46-.34s.52-.54.52-.96c0-.38-.15-.67-.45-.86-.3-.19-.86-.38-1.67-.58-1.08-.25-1.87-.57-2.35-.99-.49-.41-.73-.98-.73-1.71,0-.52.14-.97.43-1.37s.68-.71,1.18-.94c.5-.23,1.08-.34,1.73-.34s1.25.09,1.81.27c.56.18,1.05.45,1.46.8l-.64,1.27c-.21-.2-.46-.38-.74-.52-.29-.14-.59-.26-.91-.34-.32-.08-.65-.12-.97-.12-.53,0-.97.11-1.31.32s-.51.52-.51.9.16.7.49.88c.33.19.87.37,1.63.55,1.1.25,1.9.57,2.38.99.48.41.72.98.72,1.7,0,.56-.15,1.04-.44,1.45s-.71.73-1.23.95c-.53.22-1.15.34-1.85.34Z"/>
    <path class="cls-2" d="M303.42,459.33c-.32,0-.59-.1-.82-.31-.23-.21-.34-.48-.34-.8s.11-.59.34-.8c.23-.21.5-.31.82-.31s.58.1.81.31c.22.21.34.47.34.8s-.11.59-.34.8c-.23.21-.49.31-.81.31ZM302.58,469.81v-8.82h1.66v8.82h-1.66Z"/>
    <path class="cls-2" d="M305.99,462.39v-1.4h2.27v1.4h-2.27ZM310.74,470.08c-.82,0-1.48-.24-1.99-.72-.5-.48-.75-1.22-.75-2.22v-8.74h1.66v2.59h2.58v1.4h-2.58v4.33c0,.67.12,1.14.36,1.42.24.27.6.41,1.07.41.21,0,.41-.02.6-.07.19-.05.36-.11.5-.19l.34,1.36c-.25.13-.53.24-.84.32-.31.08-.63.12-.95.12Z"/>
  </g>
  <g>
    <path class="cls-2" d="M36.33,318.24v-12.6h4.4c.88,0,1.66.15,2.33.45s1.2.74,1.58,1.3c.38.56.57,1.24.57,2.03s-.18,1.49-.53,2.05c-.35.56-.87.98-1.54,1.27s-1.49.44-2.45.44h-2.67v5.05h-1.69ZM38.02,311.71h2.73c.88,0,1.56-.19,2.04-.56.49-.37.73-.93.73-1.67s-.25-1.31-.74-1.72c-.5-.41-1.17-.61-2.01-.61h-2.75v4.56Z"/>
    <path class="cls-2" d="M47.34,318.24v-12.96h1.66v5.88l-.34-.35c.4-.57.87-.99,1.44-1.26.56-.27,1.14-.4,1.75-.4.8,0,1.46.16,1.99.48.53.32.93.73,1.19,1.24.26.5.4,1.02.4,1.56v5.81h-1.66v-5.33c0-.66-.21-1.2-.63-1.61s-.98-.62-1.69-.62c-.47,0-.89.1-1.26.31-.37.21-.66.5-.87.88-.21.38-.32.82-.32,1.31v5.05h-1.66Z"/>
    <path class="cls-2" d="M62.14,318.51c-.91,0-1.73-.21-2.44-.64s-1.27-.99-1.68-1.7c-.41-.71-.61-1.49-.61-2.34,0-.63.12-1.23.35-1.79.23-.56.56-1.06.99-1.5.43-.44.93-.78,1.5-1.02.58-.25,1.21-.37,1.9-.37.91,0,1.72.21,2.44.64.71.43,1.27.99,1.68,1.7.41.71.61,1.49.61,2.34,0,.63-.12,1.23-.35,1.79-.23.56-.56,1.06-.99,1.49-.43.43-.93.77-1.5,1.02-.58.25-1.21.37-1.9.37ZM62.15,317.02c.59,0,1.11-.13,1.57-.39.46-.26.82-.63,1.08-1.11.26-.48.4-1.04.4-1.69s-.13-1.21-.39-1.69c-.26-.48-.62-.85-1.08-1.11s-.99-.39-1.58-.39-1.12.13-1.58.39c-.46.26-.82.63-1.08,1.11-.26.48-.39,1.04-.39,1.69s.13,1.21.39,1.69c.26.48.62.85,1.08,1.11.46.26.99.39,1.58.39Z"/>
    <path class="cls-2" d="M68.97,318.24v-8.82h1.66v1.19c.38-.52.82-.89,1.32-1.12.5-.23,1.02-.34,1.55-.34.8,0,1.46.16,1.98.48s.92.73,1.18,1.23c.26.5.39,1.01.39,1.53v5.85h-1.66v-5.34c0-.67-.21-1.2-.62-1.61s-.98-.61-1.69-.61c-.47,0-.89.1-1.26.31s-.66.5-.88.88c-.22.38-.32.81-.32,1.31v5.05h-1.66Z"/>
    <path class="cls-2" d="M83.79,318.51c-.94,0-1.76-.19-2.48-.58-.72-.39-1.27-.93-1.67-1.63-.4-.7-.6-1.51-.6-2.44,0-.67.11-1.3.34-1.87.23-.58.55-1.07.97-1.49s.91-.75,1.47-.98c.56-.23,1.17-.35,1.83-.35.71,0,1.35.13,1.91.38.56.25,1.03.6,1.39,1.06.37.45.63.98.8,1.59.16.61.19,1.27.1,1.98h-7.18c-.02.59.1,1.1.36,1.54.26.44.63.78,1.12,1.03.49.25,1.07.37,1.74.37.49,0,.97-.08,1.44-.23.47-.16.88-.39,1.24-.69l.7,1.23c-.29.23-.63.43-1.02.6-.39.17-.8.29-1.23.37-.43.08-.84.13-1.24.13ZM80.76,312.88h5.44c-.02-.74-.25-1.32-.69-1.74s-1.07-.63-1.88-.63-1.45.21-1.96.63-.82,1-.9,1.74Z"/>
    <path class="cls-2" d="M91.17,311.48c-.35,0-.65-.11-.9-.33-.25-.22-.38-.51-.38-.87,0-.24.06-.45.17-.63.11-.18.27-.32.46-.42.2-.1.41-.15.64-.15.35,0,.65.11.9.33.25.22.37.51.37.87,0,.24-.06.45-.17.63-.11.18-.27.32-.46.42-.19.1-.4.15-.64.15ZM91.17,318.51c-.35,0-.65-.11-.9-.33-.25-.22-.38-.51-.38-.87,0-.24.06-.45.17-.63.11-.18.27-.32.46-.42.2-.1.41-.15.64-.15.35,0,.65.11.9.33.25.22.37.51.37.87,0,.24-.06.45-.17.63-.11.18-.27.32-.46.42-.19.1-.4.15-.64.15Z"/>
  </g>
  <g>
    <path class="cls-2" d="M113.23,253.55l-1.4-.56,6.62-16,1.4.56-6.62,16Z"/>
    <path class="cls-2" d="M161.88,253.55l-1.4-.56,6.62-16,1.4.56-6.62,16Z"/>
  </g>
  <g>
    <line class="cls-6" x1="255.52" y1="257.3" x2="357.69" y2="257.32"/>
    <rect class="cls-4" x="255.52" y="256.31" width="102.17" height="2"/>
  </g>
  <g>
    <line class="cls-6" x1="96.59" y1="318.51" x2="468.87" y2="318.51"/>
    <rect class="cls-4" x="96.59" y="317.51" width="372.29" height="2"/>
  </g>
  <g>
    <line class="cls-6" x1="40.39" y1="421.03" x2="467.51" y2="421.04"/>
    <rect class="cls-4" x="40.39" y="420.03" width="427.12" height="2"/>
  </g>
  <g>
    <line class="cls-6" x1="183.04" y1="376.98" x2="467.51" y2="376.98"/>
    <rect class="cls-4" x="183.04" y="375.98" width="284.47" height="2"/>
  </g>
  <g>
    <line class="cls-6" x1="37.18" y1="578.33" x2="462.78" y2="578.34"/>
    <rect class="cls-4" x="37.18" y="577.34" width="425.6" height="2"/>
  </g>
  <g>
    <line class="cls-6" x1="36.54" y1="630.98" x2="463.66" y2="630.98"/>
    <rect class="cls-4" x="36.54" y="629.98" width="427.12" height="2"/>
  </g>
  <g>
    <line class="cls-6" x1="36.44" y1="683.62" x2="463.56" y2="683.63"/>
    <rect class="cls-4" x="36.44" y="682.63" width="427.12" height="2"/>
  </g>
  <g>
    <path class="cls-2" d="M183.33,137.24v-12.6h4.4c.88,0,1.66.15,2.33.45.67.3,1.2.74,1.58,1.3.38.56.57,1.24.57,2.03s-.18,1.49-.53,2.05c-.35.56-.87.98-1.54,1.27s-1.49.44-2.45.44h-2.67v5.05h-1.69ZM185.02,130.7h2.73c.88,0,1.56-.19,2.04-.56.49-.37.73-.93.73-1.67s-.25-1.31-.74-1.72c-.5-.41-1.17-.61-2.01-.61h-2.75v4.56Z"/>
    <path class="cls-2" d="M196.77,137.51c-.62,0-1.16-.11-1.62-.34-.46-.23-.82-.55-1.08-.97s-.38-.91-.38-1.48c0-.47.12-.9.36-1.28.24-.39.62-.71,1.14-.96.52-.25,1.18-.43,2.01-.51.82-.09,1.81-.07,2.98.05l.04,1.21c-.9-.12-1.67-.17-2.29-.14-.63.03-1.14.11-1.53.25-.39.14-.68.33-.86.56s-.27.49-.27.78c0,.46.17.82.5,1.08.33.26.79.39,1.37.39.5,0,.94-.09,1.34-.27s.7-.44.93-.77.34-.71.34-1.14v-2.46c0-.42-.09-.78-.27-1.09-.18-.31-.45-.54-.8-.71s-.79-.25-1.31-.25c-.47,0-.93.07-1.38.21s-.89.36-1.31.67l-.5-1.28c.55-.37,1.11-.63,1.69-.78s1.14-.23,1.67-.23c.81,0,1.5.13,2.07.38.57.25,1,.64,1.3,1.15.3.51.45,1.15.45,1.91v5.74h-1.53v-1.08c-.31.44-.73.77-1.27,1s-1.14.35-1.8.35Z"/>
    <path class="cls-2" d="M202.81,129.82v-1.4h2.27v1.4h-2.27ZM207.57,137.51c-.82,0-1.48-.24-1.98-.72s-.75-1.22-.75-2.22v-8.74h1.66v2.59h2.58v1.4h-2.58v4.33c0,.67.12,1.14.36,1.42.24.27.6.41,1.07.41.21,0,.41-.02.6-.07.19-.05.36-.11.5-.19l.34,1.36c-.25.13-.53.24-.84.31-.31.08-.63.12-.95.12Z"/>
    <path class="cls-2" d="M212.37,126.75c-.32,0-.59-.1-.82-.31-.23-.21-.34-.48-.34-.8s.11-.59.34-.8c.23-.21.5-.31.82-.31s.58.1.81.31c.22.21.34.47.34.8s-.11.59-.34.8c-.23.21-.49.31-.81.31ZM211.54,137.24v-8.82h1.66v8.82h-1.66Z"/>
    <path class="cls-2" d="M220.02,137.51c-.94,0-1.76-.19-2.48-.58s-1.27-.93-1.67-1.63c-.4-.7-.6-1.51-.6-2.44,0-.67.11-1.3.34-1.87.23-.58.55-1.07.97-1.49s.91-.75,1.47-.98c.56-.23,1.17-.35,1.83-.35.71,0,1.35.13,1.91.38.56.25,1.03.6,1.39,1.06.37.45.63.98.8,1.59.16.61.19,1.27.1,1.98h-7.18c-.02.59.1,1.1.36,1.54.26.44.63.78,1.12,1.03.49.25,1.07.37,1.74.37.49,0,.97-.08,1.44-.23.47-.16.88-.39,1.24-.69l.7,1.23c-.29.23-.63.43-1.02.6-.39.17-.8.29-1.23.37-.43.08-.84.13-1.24.13ZM217,131.87h5.44c-.02-.74-.25-1.32-.69-1.74s-1.07-.63-1.88-.63-1.45.21-1.96.63-.82,1-.9,1.74Z"/>
    <path class="cls-2" d="M226.22,137.24v-8.82h1.66v1.19c.38-.52.82-.89,1.32-1.12.5-.23,1.02-.34,1.55-.34.8,0,1.46.16,1.98.48s.92.73,1.18,1.23c.26.5.39,1.01.39,1.53v5.85h-1.66v-5.34c0-.67-.21-1.2-.62-1.61-.41-.41-.98-.61-1.69-.61-.47,0-.89.1-1.26.31s-.66.5-.88.88c-.22.38-.32.81-.32,1.31v5.05h-1.66Z"/>
    <path class="cls-2" d="M235.79,129.82v-1.4h2.27v1.4h-2.27ZM240.54,137.51c-.82,0-1.48-.24-1.98-.72s-.75-1.22-.75-2.22v-8.74h1.66v2.59h2.58v1.4h-2.58v4.33c0,.67.12,1.14.36,1.42.24.27.6.41,1.07.41.21,0,.41-.02.6-.07.19-.05.36-.11.5-.19l.34,1.36c-.25.13-.53.24-.84.31-.31.08-.63.12-.95.12Z"/>
    <path class="cls-2" d="M249.27,137.24v-12.6h3.82c1.24,0,2.33.27,3.28.81.95.54,1.7,1.28,2.24,2.23.54.95.81,2.04.81,3.27,0,.92-.15,1.76-.46,2.53s-.75,1.44-1.31,1.99c-.56.56-1.23.99-2.01,1.3s-1.62.46-2.55.46h-3.82ZM250.96,135.66h1.85c.73,0,1.39-.11,1.98-.33.59-.22,1.1-.53,1.53-.95.43-.41.75-.91.99-1.48.23-.58.35-1.23.35-1.96,0-.97-.2-1.8-.6-2.51-.4-.71-.96-1.26-1.69-1.64-.72-.39-1.57-.58-2.55-.58h-1.85v9.45Z"/>
    <path class="cls-2" d="M265.72,137.51c-.94,0-1.76-.19-2.48-.58-.72-.39-1.28-.93-1.67-1.63-.4-.7-.6-1.51-.6-2.44,0-.67.11-1.3.34-1.87.23-.58.55-1.07.97-1.49s.91-.75,1.47-.98c.56-.23,1.17-.35,1.83-.35.71,0,1.35.13,1.91.38.56.25,1.03.6,1.39,1.06s.63.98.8,1.59.19,1.27.1,1.98h-7.18c-.02.59.1,1.1.36,1.54.26.44.63.78,1.12,1.03s1.07.37,1.74.37c.49,0,.97-.08,1.44-.23.47-.16.88-.39,1.24-.69l.7,1.23c-.29.23-.63.43-1.02.6-.39.17-.8.29-1.23.37-.43.08-.84.13-1.24.13ZM262.7,131.87h5.44c-.02-.74-.25-1.32-.69-1.74-.44-.42-1.07-.63-1.88-.63s-1.45.21-1.96.63c-.52.42-.82,1-.9,1.74Z"/>
    <path class="cls-2" d="M270.73,129.82v-1.4h2.27v1.4h-2.27ZM275.48,137.51c-.82,0-1.48-.24-1.98-.72s-.75-1.22-.75-2.22v-8.74h1.66v2.59h2.58v1.4h-2.58v4.33c0,.67.12,1.14.36,1.42s.6.41,1.07.41c.21,0,.41-.02.6-.07.19-.05.36-.11.5-.19l.34,1.36c-.25.13-.53.24-.84.31-.31.08-.63.12-.95.12Z"/>
    <path class="cls-2" d="M281.88,137.51c-.62,0-1.16-.11-1.62-.34-.46-.23-.82-.55-1.08-.97-.25-.42-.38-.91-.38-1.48,0-.47.12-.9.36-1.28.24-.39.62-.71,1.14-.96.52-.25,1.18-.43,2.01-.51s1.81-.07,2.98.05l.04,1.21c-.9-.12-1.67-.17-2.29-.14-.63.03-1.14.11-1.53.25-.39.14-.68.33-.86.56-.18.23-.27.49-.27.78,0,.46.17.82.5,1.08.33.26.79.39,1.37.39.5,0,.94-.09,1.34-.27s.7-.44.93-.77c.23-.33.34-.71.34-1.14v-2.46c0-.42-.09-.78-.27-1.09-.18-.31-.45-.54-.8-.71-.35-.17-.79-.25-1.3-.25-.47,0-.93.07-1.38.21-.45.14-.89.36-1.31.67l-.5-1.28c.55-.37,1.11-.63,1.69-.78s1.14-.23,1.67-.23c.81,0,1.5.13,2.07.38s1,.64,1.3,1.15.45,1.15.45,1.91v5.74h-1.53v-1.08c-.31.44-.73.77-1.27,1s-1.14.35-1.8.35Z"/>
    <path class="cls-2" d="M290.05,126.75c-.32,0-.59-.1-.82-.31-.23-.21-.34-.48-.34-.8s.11-.59.34-.8c.23-.21.5-.31.82-.31s.58.1.81.31c.23.21.34.47.34.8s-.11.59-.34.8c-.22.21-.49.31-.81.31ZM289.21,137.24v-8.82h1.66v8.82h-1.66Z"/>
    <path class="cls-2" d="M293.73,137.24v-12.96h1.66v12.96h-1.66Z"/>
    <path class="cls-2" d="M301.1,137.5c-.7,0-1.35-.1-1.98-.31s-1.14-.48-1.55-.83l.68-1.25c.39.32.83.58,1.34.76s1,.27,1.51.27c.62,0,1.11-.11,1.46-.34.35-.23.52-.54.52-.96,0-.38-.15-.67-.45-.85-.3-.19-.86-.38-1.67-.58-1.08-.25-1.86-.57-2.35-.99-.49-.41-.73-.98-.73-1.71,0-.52.14-.97.43-1.37s.68-.71,1.18-.94c.5-.23,1.08-.34,1.73-.34s1.25.09,1.81.27c.56.18,1.05.45,1.46.8l-.64,1.27c-.21-.2-.46-.38-.74-.52-.29-.14-.59-.26-.91-.34-.32-.08-.65-.12-.97-.12-.53,0-.97.11-1.31.32-.34.22-.51.52-.51.9s.16.7.49.88c.33.19.87.37,1.63.55,1.1.25,1.9.57,2.38.99.48.41.72.98.72,1.7,0,.56-.15,1.04-.44,1.45-.29.41-.71.73-1.23.95-.53.23-1.15.34-1.85.34Z"/>
  </g>
  <g>
    <line class="cls-6" x1="36.42" y1="525.97" x2="463.54" y2="525.98"/>
    <rect class="cls-4" x="36.42" y="524.97" width="427.12" height="2"/>
  </g>
</svg>