<?xml version="1.0" encoding="UTF-8"?><svg id="Layer_2" xmlns="http://www.w3.org/2000/svg" xmlns:xlink="http://www.w3.org/1999/xlink" viewBox="0 0 1193.35 806.76"><defs><style>.cls-1{opacity:.9;}.cls-2{fill:#eace75;}.cls-3{fill:#99c0c6;}.cls-4{clip-path:url(#clippath);}.cls-5{fill:none;stroke:#fff;stroke-miterlimit:10;stroke-width:4px;}</style><clipPath id="clippath"><rect class="cls-5" x="38.61" y="319.56" width="1116.14" height="174.68" rx="12" ry="12"/></clipPath></defs><g id="Layout_Alpha"><g class="cls-4"><path class="cls-2" d="m770.08,799.97c-79.93-.67-159.88-.81-239.79-2.4-18.95-.38-37.89.76-56.8-.38-1.53-.04-3.06-.08-4.59-.12-24.69-.34-49.37-.68-74.05-1.02-4.93-2.08-9.86-2.05-14.81-.05-42.42-.49-84.84-.98-127.26-1.47-18.31-2.74-36.66-2.4-55.02-.44-53.71-.53-107.42-1.06-161.13-1.59-1.4-1.61-2.83-1.65-4.31-.09-2.82-.04-5.64-.07-8.46-.11-5.6-2.24-11.23-2.25-16.87-.12-1.44-.04-2.88-.07-4.32-.11-.62-.38-1.25-.77-1.87-1.15-.26-2.5-.53-4.99-.79-7.49,1.24-12.72,1.23-25.44.35-38.18.89-61.53,1.78-123.06,2.66-184.59,2.91-11.98,2.56-24,.4-36.03.11-8.91.23-17.83.34-26.74,1.73-1.74,1.15-3.78.96-5.78-2.51-3-2.29-6.51-1.96-9.9,2.44-25.17,1.09-50.43,2.26-75.62,3.23-17.05,2.57-34.14.55-51.23.06-3.23.12-6.46.17-9.69,2.21-4.3,1.9-8.65.29-13.02-2.47-57.74,2.58-115.41,1.81-173.13-.2-14.79.86-29.53-.55-44.39-1.05-11.13,1.13-22.5,1.87-33.76,3.24-14.55,2.67-29.13.45-43.73.05-11.99-.73-23.99.95-35.94,3.02-.62,6.47.62,9.09-1.72,36.68.32,73.35.64,110.03.96,12.11,1.15,24.23,1.11,36.36.26,2.08.12,4.15.24,6.23.35,7.04,2.82,14.12,2.55,21.23.25,6.35.03,12.7.07,19.05.1,2.09,1.91,4.22,1.91,6.37.08,50.18.55,100.36,1.11,150.54,1.66,2.77,2.18,5.58,2.2,8.43.12,60.09.37,120.19-.68,180.25,1.81,11.99,2.5,24,2.67,36,.08,17.61-.16,35.17-.39,52.82.51,16.03.82,32.2,1.7,48.37-.66,12.9-1.88,25.81,1.48,38.75,1.86.19.23.44.67.56.64.53-.12,1.01-.37,1.51-.57,33.88,0,67.75.01,101.63.02.53,1.01,1.27,1.58,2.55.9,27.47.33,54.94.66,82.41.99,11.27,2.68,22.57,2.24,33.88.28,10.63.08,21.25.15,31.88.23,7.08,1.96,14.14,2.49,21.14-.25,40.52-1.94,80.92,2.73,121.43,1.67,16.92-.44,33.9.66,50.82.16,8.6-.25,9.69,2.63,10.37,9.59,2.45,25.26.03,50.45-.04,75.66-.03,13.28-.05,26.56-.08,39.84-.32,24.73-.64,49.47-.96,74.2-1.11.6-1.19,1.25-.13,1.96-.13,15.21.75,30.45-1.51,45.6-1.88-1.83-3.39-4.24-5.69-5.39-13.25-6.64-17.9-4.44-17.1,9.04,2.42,40.73.81,81.51,2.2,122.24.46,53.55.94,107.09,1.35,160.64.12,15.78.03,15.78,16.33,14.52-.47,27.76-.94,55.51-1.41,83.27-2.01,1.87-2.05,3.74-.01,5.62-.02,8.88-.03,17.76-.05,26.64-1.02.62-1.12,1.27-.07,1.95-.65,40.59-1.3,81.17-1.95,121.76-2.52,3.81-6.57,3.75-10.91,3.99-9.68.53-19.54-1.87-29.06,1.29-45.94-.53-91.89-1.05-137.83-1.58-19.05-2.93-38.13-2.41-57.22-.45-52.28-.58-104.57-1.15-156.85-1.73-7.04-2.49-14.1-2.37-21.19-.14Z"/><g class="cls-1"><path class="cls-3" d="m31.24,537.3l1.54,1.14c1.75,1.29,2.62,2.65,2.59,4.05-.02,1.42-.96,2.77-2.79,4.02l-1.62,1.11.26-10.32Z"/><path class="cls-3" d="m32.19,539.25c2.96,2.18,2.93,4.33-.16,6.45.05-2.15.11-4.3.16-6.45Z"/><path class="cls-3" d="m43.07,161.77l.87.88c.75.76.77,1.44.65,1.88-.27,1.01-1.41,1.45-2.38,1.73l-2.59.73,3.44-5.23Z"/><path class="cls-3" d="m43.23,163.35c.96.98.16,1.54-1.28,1.95.43-.65.86-1.3,1.28-1.95Z"/><path class="cls-3" d="m43.07,435.28l.87.88c.75.76.77,1.44.65,1.88-.27,1.01-1.41,1.45-2.38,1.73l-2.59.73,3.44-5.23Z"/><path class="cls-3" d="m43.23,436.87c.96.98.16,1.54-1.28,1.95.43-.65.86-1.3,1.28-1.95Z"/><path class="cls-3" d="m43.07,709.38l.87.88c.75.76.77,1.44.65,1.88-.27,1.01-1.41,1.45-2.38,1.73l-2.59.74,3.45-5.23Z"/><path class="cls-3" d="m43.23,710.97c.96.98.16,1.54-1.28,1.95.43-.65.86-1.3,1.28-1.95Z"/><path class="cls-3" d="m34.47,224.89h-.2l-.32-.58-1.27-1.42h1.73s.48-.54.48-.54l.48.54,146.09-.12-2.9,3.29h-.44c-1.15.04-2.3.07-3.45.11-2.42.08-4.92.15-7.39.16-33.08.04-66.17.07-99.25.09l-32.15.03-1.41-1.57Z"/><path class="cls-3" d="m36.32,225.46c-.48-.53-.96-1.07-1.44-1.6,0,0-.03.03-.03.03,48.13-.04,96.26-.08,144.38-.11-.38.43-.76.87-1.15,1.3-3.6.09-7.21.25-10.81.26-43.65.05-87.31.08-130.96.12Z"/><path class="cls-3" d="m32.42,255.71l1.95-1.3c1.4-.94,3.04-1.06,4.31-1.06.6,0,1.21.03,1.82.06.56.03,1.11.06,1.65.06,25.99-.02,51.99-.03,77.97-.03h59.08s-.84,3.46-.84,3.46l-140.29.05-5.64-1.25Z"/><path class="cls-3" d="m34.93,255.24c2-1.34,4.8-.77,7.23-.77,45.25-.03,90.51-.02,135.76-.02-.12.49-.24.97-.35,1.46-46.46.02-92.93.03-139.39.05-1.08-.24-2.16-.48-3.25-.72Z"/><path class="cls-3" d="m33.17,10.66l.79-1.47c1.04-1.93,3.12-2.15,4.59-2.15.74,0,1.5.06,2.23.12.67.05,1.3.11,1.86.11,37.23-.06,75.08-.06,111.67-.07h26s-.14,3.57-.14,3.57l-147-.11Z"/><path class="cls-3" d="m179.27,8.2c-.02.52-.04,1.05-.06,1.57-48.12-.04-96.24-.07-144.36-.11,1.33-2.47,5.16-1.39,7.82-1.4,45.54-.08,91.07-.06,136.61-.07Z"/><path class="cls-3" d="m36.16,41.83l-.38-1.93c2.91-1.18,5.96-1.19,8.91-1.19,1.36,0,2.64,0,3.91-.11h.09s.09,0,.09,0c1.28.13,2.61.27,3.9.27,1.51,0,2.73-.18,3.83-.58l.16-.06h117.92s6.03,1.04,6.03,1.04l-.03.75.97.95-3.55.86H36.16Z"/><path class="cls-3" d="m179.6,40.11s-.01.32-.01.32c-.56.14-1.12.27-1.68.4-47.25,0-94.5,0-141.75,0,3.99-1.62,8.38-.88,12.54-1.23,2.79.28,5.57.56,8.17-.37,39.22,0,78.44,0,117.66,0,1.69.29,3.39.59,5.08.88Z"/><path class="cls-3" d="m32.46,72.61l1.64-1.69c1.11-1.15,2.76-1.3,4.22-1.3.33,0,.66,0,.99.02.31,0,.62.01.92.01,43.26-.17,86.44-.32,129.63-.45h.21c2.06,0,4.15.09,6.17.17.97.04,1.94.08,2.91.11l.9.03.23,3.22-147.82-.12Z"/><path class="cls-3" d="m179.12,70.48c.03.42.06.83.09,1.25-48.13-.04-96.26-.08-144.39-.11,1.24-1.28,3.52-.96,5.49-.97,43.19-.17,86.37-.32,129.56-.45,3.08,0,6.17.19,9.25.29Z"/><path class="cls-3" d="m39.07,103.86c-.21-.09-.72-.1-1.13-.1-.95,0-2.54-.01-2.91-1.48l-.1-.41.23-.38c.27-.44.68-.52,1.76-.75.25-.05.49-.1.69-.15l.13-.03h.13c.97.03,1.95.05,2.92.08,2.08.06,4.24.12,6.35.12,34.43.02,68.86.03,103.3.04h29.6s.1.89.1.89c.04.37.02.74-.07,1.11l-.18.72-.74.04c-.38.02-.73.07-1.06.16l-.13.03-138.68.19-.19-.08Z"/><path class="cls-3" d="m179.13,101.81c.03.25.01.5-.05.75-.44.02-.87.09-1.27.2-46.11.06-92.23.12-138.34.19-1.05-.46-3.18.25-3.47-.91-.03-.11,1.19-.31,1.84-.47,3.1.07,6.19.2,9.29.2,44,.03,88,.03,132,.05Z"/><path class="cls-3" d="m31.58,131.77l24.97-.48c6.16.03,12.3.06,18.44.1,14.22.08,28.93.16,43.39.17h.57c12.11,0,24.43-.08,36.34-.17,5.46-.04,10.92-.08,16.39-.11l4.5.19,3.74.21.16.86.21,2.04s-8.65-.02-12.41-.03c-6.18-.02-12.36-.03-18.53-.03h-5.11c-25.97.04-51.94.09-77.91.14l-30.35.06-4.39-2.97Z"/><path class="cls-3" d="m179.09,132.64c.03.31.06.63.09.94-11.65-.02-23.3-.07-34.95-.05-35.98.05-71.97.13-107.95.2-.51-.34-1.01-.68-1.52-1.03,7.27-.14,14.54-.28,21.81-.42,20.6.1,41.21.26,61.81.27,17.77,0,35.54-.17,53.31-.27,1.48.06,2.97.13,4.45.19.98.06,1.96.11,2.95.17Z"/><path class="cls-3" d="m35.25,194.6c.27-1.04,1.08-2.28,3.41-2.28.75,0,1.52.12,2.27.23.6.09,1.16.17,1.59.17,28.8-.06,57.4-.08,91.48-.08h40.59c1.05,0,2.1,0,3.15-.02l2.67-.02-.31,2.15-.11.83-5.25.24H38.08s-3.15.03-3.15.03l.33-1.26Z"/><path class="cls-3" d="m179.24,193.61c-.05.34-.1.67-.14,1.01-1.47.07-2.95.14-4.42.21-45.53,0-91.07,0-136.6,0-.62,0-1.24,0-1.86.01.67-2.58,4.32-1.12,6.31-1.13,44.02-.1,88.04-.07,132.06-.07,1.55,0,3.11-.02,4.66-.03Z"/><path class="cls-3" d="m39.07,165.14c-1.45,0-3.32-.15-4.87-1.35l-2.32-1.79,148.44-.04s-.17,1.69-.2,1.98l-.08.94s-.95-.03-.96-.03c-.4,0-.69.04-.95.13l-.15.05h-24.99c-35.92,0-73.07-.02-109.6-.07h0c-.67,0-1.36.04-2.05.09-.74.05-1.5.1-2.26.1Z"/><path class="cls-3" d="m179.21,162.96c-.03.3-.06.59-.09.89-.46-.01-.9.05-1.3.18-44.81,0-89.62,0-134.44-.07-2.87,0-6.29.81-8.57-.95,48.13-.01,96.27-.03,144.4-.04Z"/><path class="cls-3" d="m34.47,499.73h-1.82s.9-1.03.9-1.03l-.87-.97h1.21v-1.65l1.48,1.65,146.09-.12-2.9,3.29h-.44c-1.13.04-2.27.07-3.4.11-2.43.08-4.95.16-7.43.16-34.95.04-69.89.07-104.84.1l-26.56.02-1.4-1.57Z"/><path class="cls-3" d="m36.32,500.29c-.48-.53-.96-1.07-1.44-1.6,0,0-.03.03-.03.03,48.13-.04,96.26-.08,144.38-.11-.38.43-.76.87-1.15,1.3-3.6.09-7.21.25-10.81.26-43.65.05-87.31.08-130.96.12Z"/><path class="cls-3" d="m32.42,530.54l1.95-1.3c1.4-.94,3.04-1.06,4.31-1.06.6,0,1.21.03,1.81.06.56.03,1.11.06,1.65.06,26.5-.02,52.99-.02,79.47-.02h57.57s-.84,3.46-.84,3.46l-140.28.05-5.64-1.25Z"/><path class="cls-3" d="m34.93,530.07c2-1.34,4.8-.77,7.23-.77,45.25-.03,90.51-.02,135.76-.02-.12.49-.24.97-.35,1.46-46.46.02-92.93.03-139.39.05-1.08-.24-2.16-.48-3.25-.72Z"/><path class="cls-3" d="m33.17,287.45l.79-1.47c1.04-1.93,3.12-2.15,4.59-2.15.74,0,1.5.06,2.23.12.67.05,1.3.11,1.86.11,37.24-.06,75.08-.06,111.67-.07h25.99s-.14,3.57-.14,3.57l-147-.11Z"/><path class="cls-3" d="m179.27,284.99c-.02.52-.04,1.05-.06,1.57-48.12-.04-96.24-.07-144.36-.11,1.33-2.47,5.16-1.39,7.82-1.4,45.54-.08,91.07-.06,136.61-.07Z"/><path class="cls-3" d="m36.15,318.03l-.38-1.93c2.91-1.18,5.96-1.19,8.92-1.19,1.36,0,2.64,0,3.91-.11h.09s.09,0,.09,0c1.28.13,2.61.27,3.9.27,1.51,0,2.73-.18,3.83-.58l.16-.06h117.92s6.03,1.04,6.03,1.04l-.03.75.97.95-3.55.86H36.15Z"/><path class="cls-3" d="m179.6,316.31s-.01.32-.01.32c-.56.14-1.12.27-1.68.4-47.25,0-94.5,0-141.75,0,3.99-1.62,8.38-.88,12.54-1.23,2.79.28,5.57.56,8.17-.37,39.22,0,78.44,0,117.66,0,1.69.29,3.39.59,5.08.88Z"/><path class="cls-3" d="m32.46,348.42l1.64-1.69c1.11-1.15,2.76-1.3,4.22-1.3.33,0,.66,0,.99.02.31,0,.62.01.92.01,43.26-.17,86.44-.32,129.63-.45h.23c2.05,0,4.13.09,6.14.17.97.04,1.94.08,2.91.11l.9.03.23,3.22-147.82-.12Z"/><path class="cls-3" d="m179.12,346.29c.03.42.06.83.09,1.25-48.13-.04-96.26-.08-144.39-.11,1.24-1.28,3.52-.96,5.49-.97,43.19-.17,86.37-.32,129.56-.45,3.08,0,6.17.19,9.25.29Z"/><path class="cls-3" d="m39.07,378.91c-.21-.09-.72-.1-1.12-.1-.95,0-2.54-.01-2.91-1.48l-.1-.41.23-.38c.27-.44.67-.52,1.75-.75.25-.05.5-.1.69-.15l.13-.03h.13c.97.03,1.95.05,2.92.08,2.08.06,4.24.12,6.35.12,36,.02,72.01.03,108.01.04h24.88s.1.89.1.89c.04.37.02.74-.07,1.11l-.18.72-.74.04c-.38.02-.73.07-1.06.16l-.13.03-138.68.19-.19-.09Z"/><path class="cls-3" d="m179.13,376.86c.03.25.01.5-.05.75-.44.02-.87.09-1.27.2-46.11.06-92.23.12-138.34.19-1.05-.46-3.18.25-3.47-.91-.03-.11,1.19-.31,1.84-.47,3.1.07,6.19.2,9.29.2,44,.03,88,.03,132,.05Z"/><path class="cls-3" d="m31.58,406.6l24.97-.48c6.22.03,12.42.06,18.62.1,14.16.08,28.81.16,43.21.17h.57c12.11,0,24.43-.08,36.34-.17,5.46-.04,10.92-.08,16.39-.11l4.5.2,3.81.21.17,1.79.12,1.11-12.17-.03c-6.32-.02-12.63-.03-18.95-.03h-4.95c-25.71.04-51.42.09-77.13.14l-31.13.06-4.39-2.97Z"/><path class="cls-3" d="m179.09,407.48c.03.31.06.63.09.94-11.65-.02-23.3-.07-34.95-.05-35.98.05-71.97.13-107.95.2-.51-.34-1.01-.68-1.52-1.03,7.27-.14,14.54-.28,21.81-.42,20.6.1,41.21.26,61.81.27,17.77,0,35.54-.17,53.31-.27,1.48.06,2.97.13,4.45.19.98.06,1.96.11,2.95.17Z"/><path class="cls-3" d="m35.25,469.43c.27-1.04,1.08-2.28,3.41-2.28.75,0,1.53.12,2.27.23.6.09,1.16.18,1.59.18,28.96-.06,57.45-.08,91.31-.08h40.76c1.05,0,2.1,0,3.15-.02l2.67-.02s-.27,1.87-.31,2.15l-.11.83-5.26.24H38.08s-3.15.03-3.15.03l.33-1.26Z"/><path class="cls-3" d="m179.24,468.45c-.05.34-.1.67-.14,1.01-1.47.07-2.95.14-4.42.21-45.53,0-91.07,0-136.6,0-.62,0-1.24,0-1.86.01.67-2.58,4.32-1.12,6.31-1.13,44.02-.1,88.04-.07,132.06-.07,1.55,0,3.11-.02,4.66-.03Z"/><path class="cls-3" d="m39.07,439.97c-1.46,0-3.32-.15-4.87-1.35l-2.32-1.79,148.43-.04-.19,1.98-.08.94s-.95-.03-.96-.03c-.4,0-.69.04-.95.13l-.15.05h-26.46c-35.44-.01-72.09-.02-108.14-.07h0c-.68,0-1.36.04-2.06.09-.74.05-1.5.09-2.26.09Z"/><path class="cls-3" d="m179.21,437.79c-.03.3-.06.59-.09.89-.46-.01-.9.05-1.3.18-44.81,0-89.62,0-134.44-.07-2.87,0-6.29.81-8.57-.95,48.13-.01,96.27-.03,144.4-.04Z"/><path class="cls-3" d="m34.47,774.56h-1.83s.9-1.03.9-1.03l-.87-.97h1.74s.48-.53.48-.53l.47.52,146.08-.12-2.89,3.3h-.44c-1.15.04-2.3.07-3.44.11-2.42.08-4.92.15-7.39.16-34.64.04-69.29.07-103.93.1l-27.47.02-1.41-1.57Z"/><path class="cls-3" d="m36.32,775.12c-.48-.53-.96-1.07-1.44-1.6,0,0-.03.03-.03.03,48.13-.04,96.26-.08,144.38-.11-.38.43-.76.87-1.15,1.3-3.6.09-7.21.25-10.81.26-43.65.05-87.31.08-130.96.12Z"/><path class="cls-3" d="m37.96,806.6l-5.53-1.22,1.95-1.3c1.4-.94,3.04-1.06,4.31-1.06.6,0,1.21.03,1.81.06.56.03,1.12.06,1.65.06,25.99-.02,51.99-.03,77.97-.03h59.08s-.84,3.46-.84,3.46l-140.19.05-.2-.02Z"/><path class="cls-3" d="m34.93,804.91c2-1.34,4.8-.77,7.23-.77,45.25-.03,90.51-.02,135.76-.02-.12.49-.24.97-.35,1.46-46.46.02-92.93.03-139.39.05-1.08-.24-2.16-.48-3.25-.72Z"/><path class="cls-3" d="m33.17,562.28l.79-1.47c1.04-1.93,3.12-2.15,4.59-2.15.74,0,1.5.06,2.23.12.67.06,1.3.11,1.86.11,37.49-.06,75.59-.07,112.43-.07h25.23s-.14,3.57-.14,3.57l-147-.11Z"/><path class="cls-3" d="m179.27,559.82c-.02.52-.04,1.05-.06,1.57-48.12-.04-96.24-.07-144.36-.11,1.33-2.47,5.16-1.39,7.82-1.4,45.54-.08,91.07-.06,136.61-.07Z"/><path class="cls-3" d="m36.15,592.87l-.38-1.93c2.91-1.18,5.96-1.18,8.92-1.19,1.36,0,2.64,0,3.91-.11h.09s.09,0,.09,0c1.28.13,2.61.27,3.9.27,1.51,0,2.73-.18,3.84-.58l.16-.06h117.92s6.03,1.04,6.03,1.04l-.08,1.95-2.53.61H36.15Z"/><path class="cls-3" d="m179.6,591.14s-.01.32-.01.32c-.56.14-1.12.27-1.68.4-47.25,0-94.5,0-141.75,0,3.99-1.62,8.38-.88,12.54-1.23,2.79.28,5.57.56,8.17-.37,39.22,0,78.44,0,117.66,0,1.69.29,3.39.59,5.08.88Z"/><path class="cls-3" d="m32.46,623.25l1.64-1.69c1.11-1.15,2.76-1.3,4.22-1.3.33,0,.66,0,.99.02.31,0,.62.01.92.01,43.26-.17,86.44-.32,129.63-.45h.21c2.05,0,4.13.09,6.14.17.98.04,1.96.08,2.94.12l.9.03.23,3.22-147.82-.12Z"/><path class="cls-3" d="m179.12,621.12c.03.42.06.83.09,1.25-48.13-.04-96.26-.08-144.39-.11,1.24-1.28,3.52-.96,5.49-.97,43.19-.17,86.37-.32,129.56-.45,3.08,0,6.17.19,9.25.29Z"/><path class="cls-3" d="m39.07,653.74c-.21-.09-.72-.1-1.12-.1-.95,0-2.54-.01-2.91-1.48l-.1-.41.23-.38c.27-.44.68-.52,1.75-.75.25-.05.49-.1.69-.15l.13-.03h.13c.97.03,1.95.05,2.92.08,2.08.06,4.23.12,6.34.12,34.43.02,68.86.03,103.3.04h29.6s.1.89.1.89c.04.37.02.74-.07,1.11l-.18.72-.74.04c-.37.02-.73.07-1.06.16l-.13.03-138.68.19-.19-.08Z"/><path class="cls-3" d="m179.13,651.69c.03.25.01.5-.05.75-.44.02-.87.09-1.27.2-46.11.06-92.23.12-138.34.19-1.05-.46-3.18.25-3.47-.91-.03-.11,1.19-.31,1.84-.47,3.1.07,6.19.2,9.29.2,44,.03,88,.03,132,.05Z"/><path class="cls-3" d="m31.58,681.43l24.97-.48c6.15.03,12.28.06,18.41.1,14.23.08,28.95.16,43.42.17h.57c12.16,0,24.52-.09,36.47-.17,5.42-.04,10.83-.08,16.25-.11l4.5.2,3.82.21.17,1.79.12,1.11-12.05-.03c-6.27-.01-12.55-.03-18.82-.03h-5.18c-25.99.04-51.98.09-77.97.14l-30.29.06-4.39-2.97Z"/><path class="cls-3" d="m179.09,682.31c.03.31.06.63.09.94-11.65-.02-23.3-.07-34.95-.05-35.98.05-71.97.13-107.95.2-.51-.34-1.01-.68-1.52-1.03,7.27-.14,14.54-.28,21.81-.42,20.6.1,41.21.26,61.81.27,17.77,0,35.54-.17,53.31-.27,1.48.06,2.97.13,4.45.19.98.06,1.96.11,2.95.17Z"/><path class="cls-3" d="m35.25,744.26c.27-1.04,1.08-2.28,3.41-2.28.75,0,1.52.12,2.27.23.6.09,1.16.17,1.59.17,28.8-.06,57.4-.08,91.48-.08h40.59c1.05,0,2.1,0,3.15-.02l2.67-.02-.31,2.15-.11.83-5.25.24H38.08s-3.15.03-3.15.03l.33-1.26Z"/><path class="cls-3" d="m179.24,743.28c-.05.34-.1.67-.14,1.01-1.47.07-2.95.14-4.42.21-45.53,0-91.07,0-136.6,0-.62,0-1.24,0-1.86.01.67-2.58,4.32-1.12,6.31-1.13,44.02-.1,88.04-.07,132.06-.07,1.55,0,3.11-.02,4.66-.03Z"/><path class="cls-3" d="m39.07,714.8c-1.46,0-3.32-.15-4.87-1.35l-2.32-1.79,148.44-.04-.19,1.98-.08.94-1.04-.03c-.31,0-.6.04-.86.13l-.15.05h-24.99c-35.92,0-73.07-.02-109.6-.07h0c-.67,0-1.36.04-2.05.09-.74.05-1.5.1-2.26.1Z"/><path class="cls-3" d="m179.21,712.62c-.03.3-.06.59-.09.89-.46-.01-.9.05-1.3.18-44.81,0-89.62,0-134.44-.07-2.87,0-6.29.81-8.57-.95,48.13-.01,96.27-.03,144.4-.04Z"/><path class="cls-3" d="m1158.94,10.8c-2.48-.03-4.96-.07-7.43-.07-320.85,0-641.7-.01-962.55-.01h-.08l-2.25-.36-.21-1.87-.1-.95.94-.14c.33-.05.66-.09,1-.12l.18-.02.17.05c1.82.5,3.81.74,6.07.74s4.43-.22,6.6-.44c2.22-.22,4.51-.45,6.8-.45,220.77.02,441.56.03,662.32.03h284.79c4.16,0,8.42,0,12.01,1.61l-.38,1.91-4.45.12-3.45-.04Z"/><path class="cls-3" d="m1166.81,9.72c-1.48.04-2.95.08-4.43.12-3.63-.04-7.25-.11-10.88-.11-320.85,0-641.7-.01-962.55-.01-.47-.08-.95-.15-1.42-.22-.04-.37-.08-.74-.12-1.1.31-.05.62-.09.94-.11,6.6,1.8,13.16-.11,19.74-.11,315.7.03,631.4.03,947.11.03,4.1,0,8.19,0,11.6,1.52Z"/><path class="cls-3" d="m189.14,164.64l-2.63-.43v-.84c0-.08-.01-.15-.03-.22l-.23-1.05,2.71-.36h1.39c1.11-.02,2.22-.03,3.34-.03h977.38s.13,2.91.13,2.91c0,0-3.87.04-5.29.06-2.99.04-5.97.07-8.96.08h-335.65c-205.46,0-410.92,0-616.37,0-2.64,0-5.34.07-7.94.14-1.22.03-2.44.07-3.66.09h-.05s-4.15-.35-4.15-.35Z"/><path class="cls-3" d="m1170.17,163.62c-4.4.04-8.8.12-13.2.12-317.34,0-634.68,0-952.02,0-3.87,0-7.75.15-11.62.24-1.37-.11-2.73-.23-4.1-.34-.57-.1-1.15-.19-1.72-.29,0-.14-.02-.28-.05-.42.52-.07,1.05-.14,1.58-.21,1.55,0,3.11-.03,4.66-.03,325.48,0,650.95,0,976.43,0,.01.3.03.61.04.91Z"/><path class="cls-3" d="m1158.8,72.74c-2.46-.03-4.91-.07-7.37-.07-278.43,0-962.39-.01-962.39-.01h-.08l-2.46-.38.02-.86-1-1,3.64-.76,5.7-.41h.06c7.54.31,15.65.46,24.82.46s18.52-.15,28.03-.32c1.2.02,2.35.06,3.51.09,2.41.06,4.91.13,7.36.13h210.58c226.94.01,453.88.02,680.81.05,1.17,0,2.39-.06,3.56-.13,1.21-.06,2.46-.13,3.7-.13,2.32,0,4.19.24,5.87.76l.51.16.21.59c.12.42.02.9-.27,1.23-.21.26-.51.39-.72.48l-.13.06-.22.11s-2.58-.03-3.74-.05Z"/><path class="cls-3" d="m247.78,70.39c3.62.08,7.23.22,10.85.22,297.13.01,594.26,0,891.39.05,4.26,0,8.71-.81,12.83.46.11.03.09.27,0,.38-.1.12-.35.2-.54.29-3.62-.04-7.25-.11-10.87-.11-320.8,0-641.59,0-962.39-.01-.51-.08-1.01-.15-1.52-.23,0,0,0-.41,0-.41.59-.12,1.18-.25,1.77-.37,1.86-.13,3.72-.27,5.58-.4,17.63.72,35.27.45,52.91.14Z"/><path class="cls-3" d="m1156.63,134.49c-.62,0-1.25-.03-1.87-.06-.58-.03-1.16-.05-1.72-.05-146.53,0-293.06.01-439.59.01-154.81,0-524.48,0-524.48,0l-2.65-.31.17-1.04c0-.05.01-.11,0-.17l-.09-.92,2.69-.46,25.91-.4c1.28.03,2.52.08,3.76.12,2.58.09,5.24.18,7.86.18,281.57.01,563.15.01,844.72.02h92.6l-2.42,1.8c-1.52,1.13-3.42,1.28-4.9,1.28Z"/><path class="cls-3" d="m215.02,132.09c3.87.11,7.74.31,11.6.31,311.44.01,622.87.01,934.31.02-2.1,1.56-5.21.97-7.89.97-321.34.02-642.68.01-964.02,0-.52-.06-1.03-.12-1.55-.18.02-.14.03-.28.01-.42.56-.1,1.13-.19,1.69-.29,8.61-.13,17.22-.27,25.84-.4Z"/><path class="cls-3" d="m1157.6,195.45c-1.24-.03-2.48-.06-3.73-.06-266.87,0-965.86.01-965.86.01l.04-1.9v-.97s.98-.02.98-.02c.3,0,.59-.05.85-.13l.15-.05s2.66.03,3.91.05c2.63.04,5.26.07,7.89.07h145.17c267,0,534,0,801,.05,1.16,0,2.38-.06,3.56-.11,1.22-.06,2.48-.12,3.73-.12,3.01,0,5.25.35,7.26,1.13l-.31,1.93-2.89.14-1.73-.04Z"/><path class="cls-3" d="m189.03,194.41c0-.3.01-.59.02-.89.4,0,.77-.07,1.12-.17,3.88.04,7.77.12,11.65.12,315.39,0,630.78,0,946.17.05,4.71,0,9.76-.88,14.18.84-.95.05-1.91.09-2.86.14-1.81-.03-3.62-.09-5.44-.09-321.61,0-643.23,0-964.84.01Z"/><path class="cls-3" d="m1171.29,256.85c-1.4-.03-2.8-.07-4.21-.07-325.04,0-650.09.02-975.13.03h-.12l-3.71-.87-.13-.63c-.07-.33-.09-.67-.08-1l.03-.91.91-.05c.38-.02.75-.08,1.08-.17l.12-.03,20.36-.05h4.67c1.17.02,2.32.04,3.47.06,2.43.05,4.94.1,7.4.1l942.51.02c2.13,0,4.29.05,6.38.11.98.02,1.96.05,2.95.07l1.41.03-1.22,3.24-4.7.19s-1.36-.03-2.02-.05Z"/><path class="cls-3" d="m188.98,255.11c-.05-.26-.07-.52-.06-.78.44-.03.87-.09,1.28-.2,6.75-.02,13.49-.04,20.24-.06,1.56,0,3.12,0,4.67,0,3.62.06,7.25.17,10.87.17,314.17,0,628.34,0,942.51.02,3.1,0,6.21.11,9.31.17-.16.43-.32.86-.49,1.29-1.34.05-2.67.11-4.01.17-2.07-.04-4.14-.12-6.21-.12-325.04,0-650.09.02-975.13.03-.99-.23-1.98-.47-2.97-.7Z"/><path class="cls-3" d="m1153.87,103.82c-.6,0-1.22-.04-1.82-.07-.55-.03-1.1-.07-1.62-.07-150.58.01-301.2.01-451.78.01s-510.75,0-510.75,0l.14-2.02.06-.94s642.08.01,962.66.02c1.22,0,2.44-.03,3.66-.05l1.83-.04h.07c.42.06.84.11,1.27.15l2.41.2-1.85,1.56c-1.32,1.11-2.98,1.25-4.28,1.25Z"/><path class="cls-3" d="m188.97,102.69c.02-.32.04-.64.06-.95,320.57,0,641.15.01,961.72.02,1.81,0,3.62-.06,5.44-.09.44.06.87.1,1.32.14-1.81,1.53-4.69.88-7.08.88-320.49.02-640.97.01-961.46,0Z"/><path class="cls-3" d="m1166.42,42.63c-3.55,0-7.12-.24-10.57-.47-3.44-.23-6.99-.47-10.5-.47-246.79.05-497.7.06-740.35.06h-189.16c-1.92,0-3.88.06-5.77.11-.91.02-1.83.05-2.74.07h-.1s-4.06-.34-4.06-.34l.06-.97c.02-.35.09-.7.2-1.04l.21-.61.64-.06c.39-.04.78-.09,1.16-.15l2.02-.55h954.73s1.96.54,1.96.54c7.33.21,7.93.24,8.39,2.48l.23,1.11-1.13.09c-1.65.13-3.36.19-5.22.19Z"/><path class="cls-3" d="m1171.56,41.44c-8.83.7-17.42-.75-26.23-.74-309.83.07-619.66.05-929.49.06-2.84,0-5.68.11-8.53.18-1.03-.09-2.06-.17-3.09-.26.01-.26.06-.51.15-.77.43-.04.85-.1,1.27-.16.65-.18,1.3-.35,1.95-.53,318.15,0,636.31,0,954.46.01.65.18,1.3.35,1.95.53q7.26.21,7.56,1.68Z"/><path class="cls-3" d="m192.72,226.24c-.89,0-1.78-.02-2.67-.04l-2.23-.05.02-2.39v-1h1c320.38,0,640.74-.01,961.1-.03,2.48,0,4.96-.03,7.44-.07l3.43-.04c.4.03.73.04,1.05.05.91.03,1.77.05,2.4.37,1.02.52,1.05,1.21.98,1.58-.22,1.09-1.73,1.33-2.38,1.39-1.8.15-3.79.22-6.25.22-321.3.01-642.6.02-963.9.02Z"/><path class="cls-3" d="m188.84,225.17c0-.47,0-.94,0-1.41,320.37,0,640.73-.01,961.1-.03,3.63,0,7.25-.07,10.88-.11,1.02.09,2.37,0,2.99.31,1.18.6-.21,1.01-1.03,1.07-2.03.17-4.11.21-6.17.21-321.3.01-642.6.02-963.9.02-1.29,0-2.59-.05-3.88-.07Z"/><path class="cls-3" d="m1158.94,287.33c-2.48-.03-4.96-.07-7.43-.07-320.85,0-641.7-.01-962.55-.01h-.08l-2.25-.36-.21-1.87-.1-.95.94-.14c.33-.05.66-.09,1-.12l.18-.02.17.05c1.82.5,3.81.74,6.07.74s4.43-.22,6.6-.44c2.22-.22,4.52-.45,6.8-.45,220.9.02,441.8.03,662.7.03h284.41c4.16,0,8.42,0,12.01,1.61l-.38,1.91-4.45.12-3.45-.04Z"/><path class="cls-3" d="m1166.81,286.25c-1.48.04-2.95.08-4.43.12-3.63-.04-7.25-.11-10.88-.11-320.85,0-641.7-.01-962.55-.01-.47-.08-.95-.15-1.42-.22-.04-.37-.08-.74-.12-1.1.31-.05.62-.09.94-.11,6.6,1.8,13.16-.11,19.74-.11,315.7.03,631.4.03,947.11.03,4.1,0,8.19,0,11.6,1.52Z"/><path class="cls-3" d="m189.14,439.57l-2.63-.43v-.84c0-.08-.01-.15-.03-.22l-.23-1.05,2.71-.36h1.33c1.13-.02,2.27-.03,3.4-.03h977.38s.14,2.91.14,2.91c0,0-3.88.04-5.3.06-2.98.04-5.96.07-8.95.08h-331.67c-206.78,0-413.57,0-620.35,0-2.64,0-5.34.07-7.94.14-1.22.03-2.44.07-3.66.09h-.05s-4.15-.35-4.15-.35Z"/><path class="cls-3" d="m1170.17,438.55c-4.4.04-8.8.12-13.2.12-317.34,0-634.68,0-952.02,0-3.87,0-7.75.15-11.62.24-1.37-.11-2.73-.23-4.1-.34-.57-.1-1.15-.19-1.72-.29,0-.14-.02-.28-.05-.42.52-.07,1.05-.14,1.58-.21,1.55,0,3.11-.03,4.66-.03,325.48,0,650.95,0,976.43,0,.01.3.03.61.04.91Z"/><path class="cls-3" d="m1158.89,348.36c-2.49-.04-4.98-.07-7.46-.07-278.43,0-962.39-.01-962.39-.01h-.08l-2.46-.38.02-.84-1.07-1.01,1.87-.4,1.84-.38,5.7-.41h.06c7.53.31,15.64.46,24.8.46s18.51-.15,28.04-.32c1.2.02,2.35.05,3.51.09,2.42.06,4.91.13,7.36.13h193.49c232.63,0,465.26.02,697.9.05,1.17,0,2.38-.06,3.56-.13,1.21-.06,2.46-.13,3.7-.13,2.32,0,4.19.24,5.87.76l.51.16.21.59c.12.41.02.9-.26,1.23-.22.26-.51.39-.72.48l-.13.06-.22.11-3.65-.05Z"/><path class="cls-3" d="m247.78,346c3.62.08,7.23.22,10.85.22,297.13.01,594.26,0,891.39.05,4.26,0,8.71-.81,12.83.46.11.03.09.27,0,.38-.1.12-.35.2-.54.29-3.62-.04-7.25-.11-10.87-.11-320.8,0-641.59,0-962.39-.01-.51-.08-1.01-.15-1.52-.23,0,0,0-.41,0-.41.59-.12,1.18-.25,1.77-.37,1.86-.13,3.72-.27,5.58-.4,17.63.72,35.27.45,52.91.14Z"/><path class="cls-3" d="m1156.63,409.43c-.62,0-1.25-.03-1.87-.06-.58-.03-1.16-.05-1.72-.05-146.12,0-292.28.01-438.39.01H188.97s-2.64-.32-2.64-.32l.16-1.03c0-.06.01-.12,0-.17l-.09-.92,2.69-.46,25.87-.4c1.32.03,2.55.08,3.78.12,2.59.09,5.26.18,7.88.19,276.1.01,552.19.01,828.29.01h109.03l-2.41,1.8c-1.52,1.13-3.42,1.28-4.9,1.28Z"/><path class="cls-3" d="m215.02,407.02c3.87.11,7.74.31,11.6.31,311.44.01,622.87.01,934.31.02-2.1,1.56-5.21.97-7.89.97-321.34.02-642.68.01-964.02,0-.52-.06-1.03-.12-1.55-.18.02-.14.03-.28.01-.42.56-.1,1.13-.19,1.69-.29,8.61-.13,17.22-.27,25.84-.4Z"/><path class="cls-3" d="m1157.6,470.39c-1.24-.03-2.48-.06-3.72-.06-266.87,0-965.86.01-965.86.01l.04-1.9v-.97s.98-.02.98-.02c.3,0,.59-.05.85-.13l.15-.05s2.68.03,3.95.05c2.62.04,5.24.07,7.85.07h135.17c270.33,0,540.67,0,811,.05,1.16,0,2.38-.06,3.56-.11,1.22-.06,2.48-.12,3.73-.12,3.01,0,5.24.35,7.26,1.13l-.31,1.93-2.9.14-1.73-.04Z"/><path class="cls-3" d="m189.03,469.34c0-.3.01-.59.02-.89.4,0,.77-.07,1.12-.17,3.88.04,7.77.12,11.65.12,315.39,0,630.78,0,946.17.05,4.71,0,9.76-.88,14.18.84-.95.05-1.91.09-2.86.14-1.81-.03-3.62-.09-5.44-.09-321.61,0-643.23,0-964.84.01Z"/><path class="cls-3" d="m1171.29,531.78c-1.4-.03-2.8-.07-4.21-.07-277.76,0-975.13.03-975.13.03h-.12l-3.71-.87-.13-.63c-.07-.33-.09-.67-.08-1l.03-.91.91-.05c.38-.02.74-.08,1.09-.17l.12-.03,20.36-.05h4.68c1.19.02,2.36.04,3.53.07,2.41.05,4.89.1,7.34.1h942.51c2.13.01,4.29.07,6.38.12.98.02,1.96.05,2.95.07l1.41.03-1.22,3.24-4.7.19s-1.36-.03-2.02-.05Z"/><path class="cls-3" d="m188.98,530.04c-.05-.26-.07-.52-.06-.78.44-.03.87-.09,1.28-.2,6.75-.02,13.49-.04,20.24-.06,1.56,0,3.12,0,4.67,0,3.62.06,7.25.17,10.87.17,314.17,0,628.34,0,942.51.02,3.1,0,6.21.11,9.31.17-.16.43-.32.86-.49,1.29-1.34.05-2.67.11-4.01.17-2.07-.04-4.14-.12-6.21-.12-325.04,0-650.09.02-975.13.03-.99-.23-1.98-.47-2.97-.7Z"/><path class="cls-3" d="m1153.87,378.76c-.6,0-1.22-.04-1.82-.07-.55-.03-1.1-.06-1.62-.06-150.58.01-301.2.01-451.78.01s-510.75,0-510.75,0c0,0,.12-1.7.14-2.01l.05-.94s642.09.01,962.66.02c1.22,0,2.44-.03,3.66-.05l1.83-.04h.07c.42.06.84.11,1.27.15l2.41.2-1.85,1.56c-1.32,1.11-2.98,1.25-4.28,1.25Z"/><path class="cls-3" d="m188.97,377.63c.02-.32.04-.64.06-.95,320.57,0,641.15.01,961.72.02,1.81,0,3.62-.06,5.44-.09.44.06.87.1,1.32.14-1.81,1.53-4.69.88-7.08.88-320.49.02-640.97.01-961.46,0Z"/><path class="cls-3" d="m1166.42,318.29c-3.55,0-7.12-.24-10.57-.47-3.44-.23-6.99-.47-10.5-.47-246.51.05-497.12.06-739.48.06h-190.02c-1.92,0-3.88.06-5.77.11-.91.02-1.82.05-2.73.07h-.1s-4.06-.34-4.06-.34l.06-.97c.02-.35.09-.7.2-1.03l.21-.61.64-.06c.39-.04.78-.09,1.16-.15l2.02-.55h954.73s1.96.54,1.96.54c7.33.21,7.93.24,8.39,2.48l.23,1.11-1.13.09c-1.65.13-3.36.19-5.22.19Z"/><path class="cls-3" d="m1171.56,317.1c-8.83.7-17.42-.75-26.23-.74-309.83.07-619.66.05-929.49.06-2.84,0-5.68.11-8.53.18-1.03-.09-2.06-.17-3.09-.26.01-.26.06-.51.15-.77.43-.04.85-.1,1.27-.16.65-.18,1.3-.35,1.95-.53,318.15,0,636.31,0,954.46.01.65.18,1.3.35,1.95.53q7.26.21,7.56,1.68Z"/><path class="cls-3" d="m192.72,501.18c-.89,0-1.78-.02-2.67-.04l-2.22-.05.02-2.39v-1s24.46,0,24.46,0c312.55,0,625.1-.01,937.65-.02,2.48,0,4.96-.03,7.44-.07l3.43-.04c.4.03.73.04,1.05.05.91.03,1.77.05,2.4.37,1.02.52,1.05,1.21.98,1.58-.22,1.09-1.73,1.33-2.38,1.39-1.8.15-3.79.22-6.25.22-321.3.01-642.6.02-963.9.02Z"/><path class="cls-3" d="m188.84,500.1c0-.47,0-.94,0-1.41,320.37,0,640.73-.01,961.1-.03,3.63,0,7.25-.07,10.88-.11,1.02.09,2.37,0,2.99.31,1.18.6-.21,1.01-1.03,1.07-2.03.17-4.11.21-6.17.21-321.3.01-642.6.02-963.9.02-1.29,0-2.59-.05-3.88-.07Z"/><path class="cls-3" d="m1158.94,562.26c-2.48-.03-4.96-.07-7.43-.07-320.85,0-641.7-.01-962.55-.01h-.08l-2.25-.36s-.17-1.5-.21-1.87l-.1-.95.94-.14c.33-.05.66-.09,1-.12l.18-.02.17.05c1.82.5,3.81.74,6.07.74s4.43-.22,6.6-.44c2.22-.22,4.52-.45,6.8-.45,220.77.02,441.56.03,662.32.03h284.79c4.16,0,8.42,0,12.01,1.61l-.38,1.91-4.45.12-3.45-.04Z"/><path class="cls-3" d="m1166.81,561.18c-1.48.04-2.95.08-4.43.12-3.63-.04-7.25-.11-10.88-.11-320.85,0-641.7-.01-962.55-.01-.47-.08-.95-.15-1.42-.22-.04-.37-.08-.74-.12-1.1.31-.05.62-.09.94-.11,6.6,1.8,13.16-.11,19.74-.11,315.7.03,631.4.03,947.11.03,4.1,0,8.19,0,11.6,1.52Z"/><path class="cls-3" d="m189.14,714.5l-2.63-.43v-.84c0-.08-.01-.15-.03-.22l-.23-1.05,2.71-.36h1.54c1.06-.02,2.13-.03,3.19-.03h977.38s.13,2.91.13,2.91c0,0-3.87.04-5.29.06-2.99.04-5.97.08-8.96.08,0,0-747.51,0-952.02,0-2.64,0-5.34.07-7.95.14-1.22.03-2.44.07-3.66.09h-.05s-4.15-.35-4.15-.35Z"/><path class="cls-3" d="m1170.17,713.48c-4.4.04-8.8.12-13.2.12-317.34,0-634.68,0-952.02,0-3.87,0-7.75.15-11.62.24-1.37-.11-2.73-.23-4.1-.34-.57-.1-1.15-.19-1.72-.29,0-.14-.02-.28-.05-.42.52-.07,1.05-.14,1.58-.21,1.55,0,3.11-.03,4.66-.03,325.48,0,650.95,0,976.43,0,.01.3.03.61.04.91Z"/><path class="cls-3" d="m1158.8,623.29c-2.46-.03-4.91-.07-7.37-.07-278.43,0-962.39-.01-962.39-.01h-.08l-2.46-.38.02-.86-1-1,3.64-.76,5.7-.41h.06c7.54.31,15.65.46,24.82.46s18.52-.15,28.03-.32c1.2.02,2.35.06,3.51.09,2.42.06,4.91.13,7.36.13h193.49c232.63,0,465.26.02,697.9.05,1.17,0,2.39-.06,3.56-.13,1.21-.06,2.46-.13,3.7-.13,2.32,0,4.19.24,5.86.76l.51.16.21.59c.12.42.02.9-.27,1.24-.22.26-.51.39-.72.48l-.13.06-.22.11s-2.58-.03-3.74-.05Z"/><path class="cls-3" d="m247.78,620.93c3.62.08,7.23.22,10.85.22,297.13.01,594.26,0,891.39.05,4.26,0,8.71-.81,12.83.46.11.03.09.27,0,.38-.1.12-.35.2-.54.29-3.62-.04-7.25-.11-10.87-.11-320.8,0-641.59,0-962.39-.01-.51-.08-1.01-.15-1.52-.23,0,0,0-.41,0-.41.59-.12,1.18-.25,1.77-.37,1.86-.13,3.72-.27,5.58-.4,17.63.72,35.27.45,52.91.14Z"/><path class="cls-3" d="m1156.63,684.36c-.62,0-1.25-.03-1.87-.06-.58-.03-1.16-.05-1.72-.05-146.53,0-293.07.01-439.59.01-154.81,0-524.48,0-524.48,0l-2.64-.31.16-1.03c0-.06.01-.12,0-.17l-.09-.92,2.68-.46,25.91-.4c1.27.03,2.5.08,3.73.12,2.59.09,5.26.18,7.89.19,279.84.01,559.68.01,839.52.01h97.8l-2.41,1.8c-1.52,1.13-3.42,1.28-4.9,1.28Z"/><path class="cls-3" d="m215.02,681.96c3.87.11,7.74.31,11.6.31,311.44.01,622.87.01,934.31.02-2.1,1.56-5.21.97-7.89.97-321.34.02-642.68.01-964.02,0-.52-.06-1.03-.12-1.55-.18.02-.14.03-.28.01-.42.56-.1,1.13-.19,1.69-.29,8.61-.13,17.22-.27,25.84-.4Z"/><path class="cls-3" d="m1157.6,745.32c-1.24-.03-2.48-.06-3.72-.06-266.87,0-965.86.01-965.86.01l.04-1.9v-.97s.98-.02.98-.02c.3,0,.59-.05.85-.13l.15-.05s2.68.03,3.94.05c2.62.04,5.24.07,7.85.07h134.92c270.42,0,540.83,0,811.25.05,1.16,0,2.38-.06,3.56-.11,1.22-.06,2.48-.12,3.73-.12,3.01,0,5.25.35,7.26,1.13l-.31,1.93-2.9.14-1.73-.04Z"/><path class="cls-3" d="m189.03,744.27c0-.3.01-.59.02-.89.4,0,.77-.07,1.12-.17,3.88.04,7.77.12,11.65.12,315.39,0,630.78,0,946.17.05,4.71,0,9.76-.88,14.18.84-.95.05-1.91.09-2.86.14-1.81-.03-3.62-.09-5.44-.09-321.61,0-643.23,0-964.84.01Z"/><path class="cls-3" d="m1171.28,806.71c-1.4-.03-2.8-.07-4.2-.07-277.76,0-975.13.03-975.13.03h-.12l-3.71-.87-.13-.63c-.07-.33-.09-.67-.08-1l.03-.91.91-.05c.38-.02.74-.08,1.09-.17l.12-.03,20.36-.05h4.68c1.19.02,2.36.04,3.53.07,2.41.05,4.89.1,7.33.1h942.51c2.13.01,4.29.07,6.38.12.98.02,1.96.05,2.95.07l1.41.03-1.22,3.24-4.7.19s-1.36-.03-2.02-.05Z"/><path class="cls-3" d="m188.98,804.97c-.05-.26-.07-.52-.06-.78.44-.03.87-.09,1.28-.2,6.75-.02,13.49-.04,20.24-.06,1.56,0,3.12,0,4.67,0,3.62.06,7.25.17,10.87.17,314.17,0,628.34,0,942.51.02,3.1,0,6.21.11,9.31.17-.16.43-.32.86-.49,1.29-1.34.05-2.67.11-4.01.17-2.07-.04-4.14-.12-6.21-.12-325.04,0-650.09.02-975.13.03-.99-.23-1.98-.47-2.97-.7Z"/><path class="cls-3" d="m1153.87,653.69c-.6,0-1.22-.04-1.82-.07-.55-.03-1.1-.07-1.62-.07-150.58.01-301.2.01-451.78.01s-510.75,0-510.75,0c0,0,.12-1.7.14-2.01l.05-.94s642.09.01,962.66.02c1.22,0,2.44-.03,3.66-.05l1.83-.04h.07c.42.06.84.11,1.27.15l2.41.2-1.85,1.56c-1.32,1.11-2.98,1.25-4.28,1.25Z"/><path class="cls-3" d="m188.97,652.56c.02-.32.04-.64.06-.95,320.57,0,641.15.01,961.72.02,1.81,0,3.62-.06,5.44-.09.44.06.87.1,1.32.14-1.81,1.53-4.69.88-7.08.88-320.49.02-640.97.01-961.46,0Z"/><path class="cls-3" d="m1166.42,593.22c-3.55,0-7.12-.24-10.57-.47-3.43-.23-6.99-.47-10.5-.47-246.79.05-497.7.06-740.35.06h-189.16c-1.92,0-3.88.06-5.77.11-.91.02-1.82.05-2.74.07h-.1s-4.06-.34-4.06-.34l.06-.97c.02-.35.09-.7.2-1.04l.21-.61.64-.06c.39-.04.78-.09,1.16-.15l2.02-.55h954.73s1.96.54,1.96.54c7.33.21,7.93.24,8.39,2.48l.23,1.11-1.13.09c-1.65.13-3.36.19-5.22.19Z"/><path class="cls-3" d="m1171.56,592.03c-8.83.7-17.42-.75-26.23-.74-309.83.07-619.66.05-929.49.06-2.84,0-5.68.11-8.53.18-1.03-.09-2.06-.17-3.09-.26.01-.26.06-.51.15-.77.43-.04.85-.1,1.27-.16.65-.18,1.3-.35,1.95-.53,318.15,0,636.31,0,954.46.01.65.18,1.3.35,1.95.53q7.26.21,7.56,1.68Z"/><path class="cls-3" d="m192.72,776.11c-.89,0-1.78-.02-2.67-.04l-2.22-.05.02-2.39v-1s962.1-.03,962.1-.03c2.48,0,4.96-.03,7.44-.07l3.43-.04c.4.03.73.04,1.05.05.91.03,1.77.05,2.4.37,1.02.52,1.05,1.21.98,1.57-.21,1.09-1.73,1.33-2.38,1.39-1.8.15-3.79.22-6.25.22-321.3.01-642.6.02-963.9.02Z"/><path class="cls-3" d="m188.84,775.04c0-.47,0-.94,0-1.41,320.37,0,640.73-.01,961.1-.03,3.63,0,7.25-.07,10.88-.11,1.02.09,2.37,0,2.99.31,1.18.6-.21,1.01-1.03,1.07-2.03.17-4.11.21-6.17.21-321.3.01-642.6.02-963.9.02-1.29,0-2.59-.05-3.88-.07Z"/></g></g><rect class="cls-5" x="38.61" y="319.56" width="1116.14" height="174.68" rx="12" ry="12"/></g></svg>