<?xml version="1.0" encoding="UTF-8"?><svg id="Layer_2" xmlns="http://www.w3.org/2000/svg" viewBox="0 0 375.15 80.86"><defs><style>.cls-1{fill:#dcac60;stroke:#fff;stroke-miterlimit:10;stroke-width:2px;}</style></defs><g id="File_Tab_Menus"><path class="cls-1" d="m374.12,79.45c-3.15.67-6.32.18-9.48.28-.72.02-1.51.43-2.19-.34,0-5.98,0-11.96,0-17.94,0-2.04,0-2.04-1.42-2.04-115.39,0-230.78,0-346.17,0-.49,0-.97.03-1.46.04-.5-.18-.7.12-.63.85,0,.29,0,.59,0,.88,0,.82,0,1.64,0,2.46,0,4.86,0,9.72-.01,14.58v1.52c-3.42,0-6.83,0-10.25.01-.4,0-1.39.03-1.47-.15-.02-.21,0-.57-.02-.78-.01-.21-.03-.42-.04-.64.02-.6.06-1.21.06-1.81,0-8.05,0-16.1,0-24.15,0-3.39-.03-6.78-.05-10.17.15-.92-.11-2.09.76-2.59,8.5,0,9.12-22.63,11.07-28.99,1.06-3.45,2.32-6.85,4.86-8.41,1.77-1.08,113.96-1.15,114.23-1.08,3.01.85,5.33,3.1,6.6,7.26,2.13,6.97,2.93,30.22,10.96,31.04,1.48,0,8.3,0,8.85,0,56.96,0,207.96.05,208.1.07,8.59,0,7.69-2.02,7.69,14.16.05,7.02,0,14.04-.02,21.06-.02.03-.06.06-.05.08,0,.07.03.13.04.19.01,1.52.02,3.05.03,4.57Z"/></g></svg>