<?xml version="1.0" encoding="UTF-8"?><svg id="Layer_2" xmlns="http://www.w3.org/2000/svg" viewBox="0 0 578.81 93.5"><defs><style>.cls-1{fill:#dcac60;stroke:#fff;stroke-miterlimit:10;stroke-width:2px;}</style></defs><g id="File_Tab_Menus"><path class="cls-1" d="m577.79,92.09c-3.15.67-20.96.18-24.12.28-.72.02-1.51.43-2.19-.34,0-5.98,0-24.6,0-30.58,0-2.04,0-2.04-1.42-2.04-115.39,0-406.72,0-522.11,0-.49,0-.97.03-1.46.04-.79,0-.62,3.38-.62,4.2,0,4.86-.01,24.53-.01,25.04-3.42,0-19.92.01-23.33.01-1.53,0-1.53.08-1.53-1.56.02-.6.06-10.15.06-10.75,0-8.05,0-16.1,0-24.15,0-3.39-.03-6.78-.05-10.17.15-.92-.11-2.09.76-2.59,8.5,0,9.12-22.63,11.07-28.99,1.06-3.45,2.32-6.85,4.86-8.41,1.77-1.08,113.96-1.15,114.23-1.08,3.01.85,5.33,3.1,6.6,7.26,2.13,6.97,2.93,30.22,10.96,31.04,1.48,0,8.3,0,8.85,0,56.96,0,411.63.05,411.76.07,8.59,0,7.69-2.02,7.69,14.16.05,7.02,0,37.02,0,38.54Z"/></g></svg>