<?xml version="1.0" encoding="UTF-8"?><svg id="Layer_2" xmlns="http://www.w3.org/2000/svg" viewBox="0 0 667.3 784.45"><g id="Layout_Alpha"><path d="m333.59,784.44c-109.64,0-219.28,0-328.92,0-4.35,0-4.27,0-4.29-4.41-.05-8.36-.57-16.73-.21-25.07.58-13.36-.35-26.7-.14-40.05.62-38.24.58-76.5.2-114.74-.18-18.4,5.42-34.25,17.21-48.05,14.5-16.98,33.21-27.03,54.6-32.47,10.7-2.72,21.66-3.83,32.61-4.25,23.21-.89,44.46-7.68,64.74-18.78,18.78-10.28,35.35-23.51,51.99-36.74,8.19-6.51,16.71-12.53,25.45-18.26,8.85-5.8,17.1-12.32,23.84-20.57,5.85-7.17,8.73-15.48,8.85-24.66.17-12.64-1.19-25.2-2.83-37.71-1.16-8.85-5.56-16.14-11.87-22.47-13.68-13.72-26.38-28.31-37.49-44.22-1.56-2.24-3.1-4.51-3.87-7.16-.44-1.51-1.2-1.46-2.14-.64-5.68,4.98-15.08,3.4-21.33-2.4-8.37-7.77-13.17-17.59-15.82-28.41-2.92-11.92-4.87-24.04-4.37-36.39.2-5.06,1.51-9.71,6.12-12.71,1.4-.91,2.89-1.59,4.59-1.5,2.3.13,2.5-.86,1.97-2.84-3.42-12.64-5.93-25.48-7.95-38.39-3.77-24.08-2.45-47.87,5.82-70.93,7.49-20.9,19.38-38.82,36.52-53.32,19.39-16.4,41.52-26.73,66.06-32.54C306.76,1.47,320.79-.18,334.99.01c27.63.37,54.1,6.15,78.68,19.02,31.09,16.28,53.19,40.59,64.36,74.24,3.48,10.47,5.27,21.29,6.25,32.28,1.36,15.17-.36,30.06-3.01,44.96-1.79,10.11-3.96,20.13-6.55,30.05-.28,1.09-.43,1.88,1.07,2.18,8.16,1.62,11.52,5.82,11.73,14.24.19,7.66-.57,15.21-1.64,22.79-1.53,10.89-3.99,21.41-9.45,31.07-3,5.31-6.79,9.88-11.94,13.2-5.84,3.76-11.84,4.49-17.87.49-1.83-1.21-2.29-.87-3.08,1.17-2.69,6.97-7.63,12.53-12.22,18.26-9.5,11.84-19.67,23.09-30.16,34.06-6.14,6.43-9.98,13.96-10.81,22.96-1.04,11.3-2.46,22.57-2.58,33.92-.12,11.16,3.99,20.71,11.55,28.86,6.65,7.18,14.29,13.18,22.41,18.55,17.08,11.29,32.44,24.85,48.97,36.85,17.66,12.82,36.47,23.52,57.3,30.37,9.19,3.03,18.71,4.34,28.31,5.23,17.5,1.63,35.2,2.06,51.89,8.62,20.65,8.12,38.24,20.12,49.72,39.65,6.23,10.61,9.37,22.19,9.37,34.57,0,60.9,0,121.79,0,182.69,0,3.82-.31,4.13-4.25,4.13-104.46,0-208.93,0-313.39,0-5.36,0-10.72,0-16.08,0Z"/></g></svg>