<?xml version="1.0" encoding="UTF-8"?><svg id="Layer_2" xmlns="http://www.w3.org/2000/svg" viewBox="0 0 584.04 367.71"><defs><style>.cls-1{fill:#f9f1de;}.cls-2{fill:#ebbd72;stroke:#fff;stroke-miterlimit:10;stroke-width:2px;}</style></defs><g id="File_Tab_Menus"><path class="cls-1" d="m574.98,1.35c-163.83,0-370.8,0-534.63,0V0h-24.12v32.03h8.16s0,0,0,0c6.17.04,12.34.1,18.51.1,163.08.03,369.3.04,532.37.08.63,0,1.19-.24,1.76-.58,0-9.07,0-18.13,0-27.2,0-3.09,0-3.09-2.07-3.09Z"/><path class="cls-2" d="m553.99,366.35H31.02c-12.79,0-30.02,1.63-29.13-6.72-1.93-3.53-.15-324.97,0-325.59.68-2.81,2.39-4.79,4.76-6.32,2.8-1.81,5.87-2.53,9.16-2.49,1.02,0,5.39,0,5.48,0,.12.17,1.52.29,2.1.29,4.98-.02,9.96-.01,14.94-.01.11-.03.22-.07.34-.1,6.17.02,12.34.07,18.51.07,163.08.02,326.16.03,489.23.05.63,0,1.19-.16,1.76-.38.99.76,2.14.36,3.19.34,4.61-.1,9.23.39,13.82-.28,2.55.36,5.11.21,7.66.28.4.02.8.03,1.21.05.08.06.15.17.23.18,3.4.25,5.97,2.05,8.15,4.49,1.36,1.52.01,323.18,0,323.38-.07,16.47,3.42,12.76-28.44,12.76Z"/></g></svg>