<?xml version="1.0" encoding="UTF-8"?><svg id="Layer_2" xmlns="http://www.w3.org/2000/svg" viewBox="0 0 364.7 430.93"><defs><style>.cls-1{fill:#c13333;}.cls-2{fill:#8c0c0c;}</style></defs><g id="Angry"><path d="m364.65,135.9c-.35-21.54-2.57-42.93-6.75-64.08-1.67-8.43-3.51-16.87-6-25.09-2.29-7.58-25.69-59.43-14.32-17.34,6.29,23.26-43.93-18.82-67.63-23.2-16.76-3.1-33.71-4.54-50.7-5.36C205.47.15,197.1.28,183.29,0c0,.11-2.07,34.03-2.07,34.15-1.14,0-12.3-30.49-13.44-30.62C93.84-4.98,22.44,49.79,30.02,27.73c15.24-44.38-15.57,11.8-18.26,21.82-1.86,6.91-3.64,13.88-4.75,20.93-2.33,14.82-4.91,29.67-6.11,44.6-2,24.93-.46,49.84,2.63,74.66,2.86,22.95,8.54,45.24,15.97,67.05,8.84,25.98,20.61,50.64,35.36,73.85,15.35,24.15,33.12,46.26,54.8,65.05,15.54,13.47,32.26,25.06,52.01,31.69,10.04,3.37,20.22,4.55,30.65,2.62,15.58-2.88,29.4-9.87,42.39-18.64,22.76-15.36,41.63-34.79,58.25-56.47,17.95-23.42,32.31-48.95,43.78-76.12,6.89-16.31,12.79-33,16.78-50.24,3.18-13.71,5.48-27.64,7.86-41.53,2.89-16.9,3.55-33.99,3.27-51.09Zm-234.9,86.47c.09-.05.17-.11.26-.16.05.05.1.11.15.16h-.41Z"/><path class="cls-2" d="m182.3,16.38c-.53,8.73-1.08,17.71-1.08,17.77-1.14,0-12.3-30.49-13.44-30.62C93.84-4.98,22.44,49.79,30.02,27.73c15.24-44.38-15.57,11.8-18.26,21.82-1.86,6.91-3.64,13.88-4.75,20.93-2.33,14.82-4.91,29.67-6.11,44.6-2,24.93-.46,49.84,2.63,74.66,2.86,22.95,8.54,45.24,15.97,67.05,8.84,25.98,20.61,50.64,35.36,73.85,15.35,24.15,33.12,46.26,54.8,65.05,15.54,13.47,32.26,25.06,52.01,31.69,6.8,2.28,13.66,3.55,20.63,3.54V16.38Zm-52.55,205.99c.09-.05.17-.11.26-.16.05.05.1.11.15.16h-.41Z"/><path class="cls-1" d="m364.65,135.9c-.35-21.54-2.57-42.93-6.75-64.08-1.67-8.43-3.51-16.87-6-25.09-2.29-7.58-25.69-59.43-14.32-17.34,6.29,23.26-43.93-18.82-67.63-23.2-16.76-3.1-33.71-4.54-50.7-5.36-13.79-.67-22.16-.55-35.96-.83,0,.05-.42,6.98-.89,14.58v416.34c3.28-.01,6.59-.31,9.92-.92,15.58-2.88,29.4-9.87,42.39-18.64,22.76-15.36,41.63-34.79,58.25-56.47,17.95-23.42,32.31-48.95,43.78-76.12,6.89-16.31,12.79-33,16.78-50.24,3.18-13.71,5.48-27.64,7.86-41.53,2.89-16.9,3.55-33.99,3.27-51.09Z"/><path class="cls-2" d="m182.17,278.84c15.76-.57,30.34,2.23,43.88,9.25,20.96,10.87,32.39,28.47,35.42,51.69.48,3.7.88,7.46.69,11.16-.11,2.2-1.15,4.52-2.29,6.48-1.32,2.26-3.69,2.49-6.08,1.67-1.07-.37-2.16-.81-3.1-1.42-11.21-7.28-23.81-10.76-36.72-13.31-11.09-2.19-22.35-3.53-33.63-3.2-19.61.58-38.85,3.58-57.03,11.44-3.12,1.35-6.09,3.16-8.93,5.05-5.64,3.74-11.53,1.3-11.81-5.44-.51-12.43,1.65-24.42,7.43-35.6,10.17-19.7,26.87-30.56,47.97-35.46,8.15-1.89,16.39-2.64,24.2-2.3Z"/><path class="cls-2" d="m220.06,178.6c3.41-.22,6.66-.42,9.91-.65,9.56-.67,19.01.23,28.49,1.54,8.98,1.25,18,2.2,27.04.04,14.33-3.43,23.86-11.97,28.21-26.12,3.63-11.85,4.89-24.01,4.58-36.36-.01-.49-.13-.99-.28-1.98-1.4,1.52-2.45,2.75-3.58,3.9-10.03,10.23-22.32,16.41-35.88,20.6-11.85,3.66-23.7,7.42-35.25,11.91-12.2,4.74-20.56,13.39-23.24,27.13Z"/><path class="cls-1" d="m150.03,167.79c-36.73-59.53-102.35-32.17-102.33-32.15,19.35,23.53,7.87,19.99,13.1,33.04,8.89,30.26,80.07,28.28,89.23-.89Z"/><path class="cls-1" d="m177.36,135.95c-6.11,3.95-12.18,6.03-18.87,6.26-8.25.28-15.76-2.26-23.02-5.87-10.46-5.19-19.5-12.38-28.44-19.77-11.2-9.26-22.44-18.5-33.97-27.34-7.04-5.4-15.14-8.79-24.2-9.29-1.12-.06-2.25.07-3.61-.42,2.84-1.18,5.61-2.61,8.54-3.5,10.39-3.16,20.19-.96,29.65,3.67,10.63,5.2,19.75,12.58,28.87,19.96,11.17,9.05,21.85,18.73,34.12,26.39,7.94,4.95,16.41,8.37,25.7,9.64,1.49.2,3.01.17,5.23.28Z"/><path class="cls-2" d="m195.15,135.95c6.11,3.95,12.18,6.03,18.87,6.26,8.25.28,15.76-2.26,23.02-5.87,10.46-5.19,19.5-12.38,28.44-19.77,11.2-9.26,22.44-18.5,33.97-27.34,7.04-5.4,15.14-8.79,24.2-9.29,1.12-.06,2.25.07,3.61-.42-2.84-1.18-5.61-2.61-8.54-3.5-10.39-3.16-20.19-.96-29.65,3.67-10.63,5.2-19.75,12.58-28.87,19.96-11.17,9.05-21.85,18.73-34.12,26.39-7.94,4.95-16.41,8.37-25.7,9.64-1.49.2-3.01.17-5.23.28Z"/><path class="cls-1" d="m232.52,243.58c-.65.86-1.16,1.74-1.87,2.42-2.89,2.74-6.35,4.56-10.18,5.4-8.09,1.78-15.22,5.6-22.37,9.58-3.68,2.05-7.7,3.72-11.77,4.79-5.59,1.47-11.04.06-16.13-2.54-2.31-1.18-4.64-2.33-6.83-3.69-5.81-3.59-11.93-6.35-18.6-7.97-2.78-.68-5.5-1.85-8.02-3.22-1.91-1.04-3.45-2.75-5.15-4.16l.47-.84c1.17.31,2.33.85,3.51.89,3.33.12,6.73.43,9.99-.06,7.21-1.06,13.73.74,20.1,3.79,2.75,1.32,5.54,2.53,8.31,3.8,4.53,2.06,9.18,2.27,13.79.5,4.04-1.55,8.01-3.33,11.92-5.19,5.37-2.56,10.94-3.57,16.87-2.99,2.8.28,5.63.32,8.45.24,2.39-.07,4.77-.46,7.53-.75Z"/><path class="cls-1" d="m96.64,315.23c-.15-1.12-.39-2.23-.44-3.35-.84-19.97,1.68-39.42,9.55-57.91,3.39-7.98,8.04-15.29,14.78-20.91,2.88-2.4,6.3-4.14,9.47-6.19.18.19.36.38.54.57-.3.54-.52,1.14-.9,1.61-12.72,15.68-21.67,33.31-26.39,52.91-2.06,8.56-3.04,17.38-4.53,26.07-.42,2.44-.9,4.86-1.36,7.29-.24-.03-.49-.07-.73-.1Z"/><path class="cls-2" d="m267.18,319.31c-1.64-34.04-11.43-65.11-33.87-92.27,1.42.45,2.41.64,3.29,1.06,9.38,4.54,15.35,12.33,19.96,21.3,11.02,21.42,13.13,44.32,11.01,67.89-.06.68-.25,1.34-.39,2.02Z"/><path class="cls-1" d="m193.31,161.66c-13.82,31.15-19.03,63.3-11.18,97.66-1.07-1.04-1.87-1.65-2.46-2.42-6.34-8.27-8.18-17.91-8.27-28-.22-24.09,8.18-45.5,20.66-65.61.36-.58.83-1.09,1.25-1.63Z"/><path class="cls-2" d="m220.06,177.5c30.89,14.38,62.95,20.16,97.44,12.93-1.06,1.05-1.69,1.84-2.47,2.42-8.38,6.19-18.06,7.85-28.14,7.76-24.09-.21-45.35-8.99-65.22-21.83-.57-.37-1.07-.85-1.6-1.28Z"/><path class="cls-1" d="m147.58,173.1c-30.89,14.38-62.95,20.16-97.44,12.93,1.06,1.05,1.69,1.84,2.47,2.42,8.38,6.19,18.06,7.85,28.14,7.76,24.09-.21,45.35-8.99,65.22-21.83.57-.37,1.07-.85,1.6-1.28Z"/><path class="cls-2" d="m181.79,118.42s7.07,9.23,0,18.46"/><path class="cls-1" d="m182.35,279.86c-.08,0-.16,0-.24,0-7.81-.35-16.06.41-24.2,2.3-21.11,4.91-37.8,15.76-47.97,35.46-5.77,11.18-7.93,23.17-7.43,35.6.27,6.74,6.16,9.18,11.81,5.44,2.85-1.89,5.81-3.7,8.93-5.05,18.18-7.86,37.42-10.86,57.03-11.44.69-.02,1.38-.02,2.07-.02v-62.29Z"/><path class="cls-2" d="m224.99,244.33c-2.81.08-5.65.04-8.45-.24-5.93-.59-11.5.42-16.87,2.99-3.91,1.87-7.88,3.64-11.92,5.19-1.78.68-3.56,1.06-5.34,1.16v12.91c1.3-.05,2.61-.23,3.92-.58,4.07-1.07,8.09-2.74,11.77-4.79,7.14-3.98,14.28-7.8,22.37-9.58,3.83-.84,7.3-2.67,10.18-5.4.71-.67,1.22-1.56,1.87-2.42-2.76.29-5.14.68-7.53.75Z"/><path class="cls-2" d="m182.05,195.27c2.54-11.36,6.35-22.55,11.26-33.6-.42.54-.89,1.05-1.25,1.63-3.75,6.04-7.12,12.2-10.01,18.51v13.47Z"/><path class="cls-2" d="m182.05,259.24s.05.05.08.08c-.03-.12-.05-.25-.08-.37v.29Z"/></g></svg>