<?xml version="1.0" encoding="UTF-8"?><svg id="Layer_2" xmlns="http://www.w3.org/2000/svg" viewBox="0 0 352.59 454.57"><defs><style>.cls-1{fill:#13b716;}.cls-2{fill:#007c00;}</style></defs><g id="Nervous"><path class="cls-2" d="m176.38,29.73c-.29,0-.58,0-.88.01-1.13,0-2.26,0-3.39,0-24.64-.09-49.2,1.03-73.57,5.02-24.45,4-47.81,11.32-69.83,22.71-3.3,1.71-6.59,3.76-9.25,6.32-5.39,5.19-7.77,12.15-9.25,19.25-2.47,11.84-4.86,23.72-6.61,35.68-1.59,10.85-2.73,21.81-3.26,32.76-1.05,21.85.37,43.62,3.07,65.33,2.81,22.57,8.4,44.49,15.7,65.93,8.8,25.85,20.51,50.38,35.23,73.44,15.06,23.61,32.47,45.23,53.67,63.63,15.38,13.35,31.94,24.83,51.51,31.38,5.56,1.86,11.17,3.04,16.85,3.37V29.73Z"/><path class="cls-1" d="m352.54,134.1c-.33-21.33-2.54-42.51-6.68-63.45-1.64-8.32-17.88-62-111.88-68.16C214.72,1.23,195.51-.15,176.22.01v424.91c2.12-.14,4.26-.4,6.4-.8,15.37-2.87,28.99-9.78,41.8-18.43,22.39-15.12,40.95-34.23,57.31-55.56,17.77-23.17,31.97-48.41,43.3-75.3,6.79-16.1,12.6-32.57,16.55-49.57,3.13-13.46,5.37-27.13,7.7-40.76,2.86-16.67,3.51-33.54,3.25-50.41Z"/><path class="cls-1" d="m183.82,159.7c-14.01,31.57-19.29,64.17-11.33,98.99-1.08-1.06-1.9-1.67-2.5-2.46-6.43-8.38-8.29-18.16-8.38-28.38-.22-24.42,8.29-46.12,20.94-66.5.36-.59.84-1.1,1.27-1.65Z"/><path class="cls-2" d="m194.42,106.05c2.51,1.13,4.39,2.58,6.6,2.96,54.71,9.26,49.03-28.33,100.23,1.38,6.21,3.6,11.82,7.24,15.36,13.54.26.46.44.95.42,1.69-.83-.55-1.64-1.12-2.48-1.66-60.62-28.28-78.71,10.47-105.11-2.64-6.69-3.11-11.78-7.92-15.02-15.27Z"/><path class="cls-1" d="m149.43,64.09c-1.95,1.95-3.18,3.98-5.11,5.12-47.8,28.19-55.91-8.94-93.12,37.09-4.51,5.58-8.45,10.98-9.51,18.13-.08.52-.07,1.05.21,1.73.57-.81,1.13-1.64,1.72-2.44,46.51-48.07,77.26-18.34,97.23-40.01,5.14-5.3,8.18-11.6,8.57-19.63Z"/><path class="cls-2" d="m216.74,239.62c-.82,1.07-1.19,1.95-1.85,2.33-2.77,1.63-5.46,3.75-8.47,4.54-7.28,1.9-13.88,5.09-20.3,8.86-4.43,2.6-9.12,4.55-14.45,4.31-4.66-.21-8.69-2.16-12.67-4.32-2.21-1.2-4.28-2.7-6.58-3.7-3.93-1.7-7.99-3.1-11.99-4.64-2.47-.95-5.03-1.73-7.34-2.97-1.64-.88-2.95-2.4-4.4-3.64.15-.22.29-.44.44-.67,1.11.29,2.22.78,3.34.82,2.83.1,5.71.33,8.49-.09,6.12-.91,11.68.62,17.11,3.17,2.46,1.15,4.93,2.27,7.4,3.4,3.93,1.8,7.98,2.02,11.99.5,3.52-1.34,6.96-2.89,10.36-4.51,4.73-2.25,9.64-3.14,14.86-2.61,4.48.45,8.97.55,14.06-.78Z"/><path class="cls-1" d="m125.79,220.23c-8.93,10.77-15.65,22.76-20.55,35.82-4.89,13.03-6.34,26.78-8.29,40.44-.25-.02-.5-.03-.75-.05-.15-1-.4-2-.44-3.01-.73-17.36,1.47-34.27,8.31-50.35,2.95-6.93,6.99-13.29,12.86-18.18,2.5-2.08,5.47-3.59,8.23-5.36.21.23.43.46.64.69Z"/><path class="cls-2" d="m244.39,300c-1.46-29.62-9.84-56.67-29.44-80.28,1.19.35,2.03.5,2.78.84,6.48,2.93,11.07,7.99,14.72,13.84,6.13,9.85,9.68,20.7,11.6,32.12,1.75,10.42,1.44,20.87.71,31.34-.05.72-.24,1.42-.37,2.14Z"/><path class="cls-1" d="m146.78,169.8c-36.73-72.67-102.35-39.27-102.33-39.24,19.35,28.72,7.87,24.41,13.1,40.33,8.89,36.93,80.07,34.52,89.23-1.09Z"/><path class="cls-2" d="m204.67,170.56c36.73-72.67,102.35-39.27,102.33-39.24-19.35,28.72-7.87,24.41-13.1,40.33-8.89,36.93-80.07,34.52-89.23-1.09Z"/><path class="cls-2" d="m198.56,112.68c-2.14-5.8-3.04-11-2.91-15.71.13-4.7,1.97-8.21,3.56-11.89-.12-.09-.24-.19-.35-.28-.25.15-.55.27-.75.47-3.5,3.42-5.57,7.9-5.36,14.02.09,2.64.79,5.58,2.59,8.92.77,1.42,1.86,2.91,2.8,4.37.14.03.28.07.42.1Z"/><path class="cls-2" d="m74.73,346.19c6.89-16.21,22.82-27.18,40.77-23.15,2.46.47,4.99,1.32,7.35,2.16,1.02.41,7.22,3.07,8.4,3.56,5.86,2.31,13.34,5.17,19.22,3.98,4.4-.78,7.34-4.05,11.27-6.6,9.41-6.37,21.27-5.91,31-.95,4.63,2.22,8.76,4.94,12.8,7.13,3.65,1.89,7.35,3.74,11.32,2.54,1.84-.64,4.47-2.09,6.26-2.9,2.3-.96,4.57-1.97,6.94-2.78,9.37-3.37,20.06-5.47,29.8-2.28,9.77,3.06,16.68,12.28,18.16,22.1-9.12-25.39-32.45-22.13-52.36-11.75-1.1.62-3.66,1.93-4.71,2.51-14.35,7.67-28.32-12.14-43.61-11.41-4.21.02-8.25,1.28-11.84,3.57-1.84,1.19-3.71,2.66-5.94,4.13-3.53,2.42-7.92,3.69-12.18,3.48-3.94-.16-7.84-1.22-11.52-2.55-8.79-2.99-17.07-9.23-26.48-10.15-14.3-2.1-27.43,7.58-34.64,19.34h0Z"/><path class="cls-1" d="m74.73,346.19c4.78-14.41,18.96-26.1,34.67-24.95,10.24.25,18.75,5.98,27.88,9.5,2.99,1.11,6.4,2.21,9.55,2.58.89.13,1.81.07,2.7.14,4.65-.14,8.24-2.96,12.33-5.31,4.28-2.48,9.44-3.83,14.35-3.27-4.6.95-8.86,3.07-12.42,6.12-1.79,1.45-3.49,3.16-5.65,4.67-2.34,1.75-5.17,2.82-8.06,3.32-1.16.06-2.44.24-3.59.2-1.16-.11-2.85-.12-3.96-.37-7.14-1.07-14.44-4.43-20.96-7.43-18.78-8.81-35.23-1.09-46.84,14.8h0Z"/><path class="cls-1" d="m176.22,247.93c-3.6,1.05-7.23.72-10.75-.9-2.47-1.13-4.94-2.25-7.4-3.4-5.43-2.55-10.99-4.08-17.11-3.17-2.78.41-5.66.19-8.49.09-1.12-.04-2.23-.53-3.34-.82-.15.22-.29.44-.44.67,1.45,1.24,2.76,2.76,4.4,3.64,2.31,1.24,4.88,2.02,7.34,2.97,4,1.54,8.06,2.94,11.99,4.64,2.29.99,4.36,2.5,6.58,3.7,3.97,2.15,8.01,4.1,12.67,4.32,1.57.07,3.08-.07,4.55-.34v-11.4Z"/><path class="cls-2" d="m177.3,176.37c1.89-5.59,4.07-11.14,6.52-16.66-.43.55-.9,1.06-1.27,1.65-1.85,2.98-3.59,5.99-5.25,9.02v5.99Z"/></g></svg>