<?xml version="1.0" encoding="UTF-8"?><svg id="Layer_2" xmlns="http://www.w3.org/2000/svg" viewBox="0 0 371.72 413.36"><defs><style>.cls-1{fill:#f4b80f;}.cls-2{fill:#bc8a0d;}</style></defs><g id="Confident"><path class="cls-1" d="m371.58,10.56c0-9.28-6.93-13.18-15.16-8.7-11.71,6.36-23.17,13.22-35.11,19.11-44.63,22.04-89.96,32.86-135.95,32.7v359.69c14.72.05,29.48-3.73,44.24-11.71,10.64-5.75,21.14-12.14,30.63-19.6,38.85-30.52,67.34-69.29,88.28-113.76,13.05-27.72,22.48-56.68,22.84-87.53.66-56.73.26-113.47.24-170.21Z"/><path class="cls-2" d="m185.43,53.66c-33.75-.22-67.85-6.35-102.3-18.34C59.22,27,37.69,13.91,15.58,2,6.81-2.72.19,1.31.19,11.35c0,29.72,0,59.44,0,89.16h.03c0,24.32-.62,48.65.23,72.94.52,14.92,1.94,30.08,5.31,44.58,10.73,46.08,33.42,86.3,63.35,122.56,19.82,24.01,42.47,44.79,70.08,59.76,15.35,8.32,30.78,12.78,46.23,13V53.66Z"/><path class="cls-1" d="m199.46,195.51c-14.01,31.57-19.29,64.17-11.33,98.99-1.08-1.06-1.9-1.67-2.5-2.46-6.43-8.38-8.29-18.16-8.38-28.38-.22-24.42,8.29-46.12,20.94-66.5.36-.59.84-1.1,1.27-1.65Z"/><path class="cls-1" d="m228.96,281.51c-.56.73-.99,1.5-1.6,2.07-2.48,2.35-5.45,3.91-8.73,4.63-6.94,1.52-13.06,4.8-19.18,8.22-3.16,1.76-6.61,3.19-10.1,4.11-4.8,1.26-9.47.05-13.84-2.18-1.98-1.01-3.98-2-5.86-3.16-4.98-3.08-10.23-5.45-15.95-6.84-2.38-.58-4.72-1.59-6.88-2.76-1.64-.89-2.96-2.36-4.42-3.56l.4-.72c1,.27,2,.73,3.01.77,2.86.1,5.77.37,8.57-.05,6.18-.91,11.78.63,17.24,3.25,2.36,1.13,4.75,2.17,7.13,3.26,3.88,1.77,7.87,1.95,11.82.43,3.47-1.33,6.87-2.85,10.22-4.45,4.61-2.2,9.39-3.07,14.47-2.56,2.4.24,4.83.27,7.25.2,2.05-.06,4.09-.4,6.46-.64Z"/><path class="cls-2" d="m274.92,280.33c19.19-1.44,36.72-10.02,52.03-29.7-.25,1.25-.36,2.12-.6,2.88-2.56,8.22-6.96,13.46-12.01,17.5-12.08,9.66-25,11.51-38.29,9.65-.38-.05-.76-.22-1.14-.34Z"/><path class="cls-1" d="m108.41,280.33c-19.19-1.44-36.72-10.02-52.03-29.7.25,1.25.36,2.12.6,2.88,2.56,8.22,6.96,13.46,12.01,17.5,12.08,9.66,25,11.51,38.29,9.65.38-.05.76-.22,1.14-.34Z"/><path class="cls-1" d="m56.41,202.72c31.51,18.69,71.34,40.27,94.5.02,1.97,15.26-21.3,29.89-46.89,30.19-23.94.28-48.71-15.04-47.61-30.21Z"/><path class="cls-2" d="m316.72,202.72c-31.51,18.69-71.34,40.27-94.5.02-1.97,15.26,21.3,29.89,46.89,30.19,23.94.28,48.71-15.04,47.61-30.21Z"/><path class="cls-2" d="m313.16,154.35c-26.1-25.72-56.7-33.34-91.72-22.75,1.76-15.28,27.86-23.89,52.77-18.03,23.3,5.48,43.67,26.31,38.95,40.78Z"/><path class="cls-1" d="m58.18,154.35c26.1-25.72,56.7-33.34,91.72-22.75-1.76-15.28-27.86-23.89-52.77-18.03-23.3,5.48-43.67,26.31-38.95,40.78Z"/><path class="cls-2" d="m96.11,314.12c11.69,9.77,27.03,17.97,42.34,15.46,8.06-1.87,16.32-3.07,24.62-2.56,8.52.47,16.92,2.06,24.86,5.3,0,0-2.58-.24-2.58-.24,14.16-3.11,28.54-4.48,42.99-3.49,18.78,2.67,34.7.08,48.26-14.47-8.35,14.73-25.96,22.16-42.6,21.36,0,0-5.97-.19-5.97-.19-13.65-.08-27.51,1.61-40.8,4.56,0,0-1.33.31-1.33.31l-1.25-.55c-10.56-4.22-22.24-5.77-33.58-5.21-3.98.18-7.88.93-11.84,1.39-4.36.39-8.75.03-12.9-1.03-12.07-3.08-22.67-10.92-30.23-20.64h0Z"/><path class="cls-1" d="m87.29,318.31c6.47-2.09,11.82-6.25,15.53-13.81.02.4.05.68.03.94-.14,2.23-.9,3.97-1.92,5.46-1.71,2.5-3.84,4.23-6.23,5.47-2.18,1.13-4.53,1.61-6.91,1.95-.16.02-.34,0-.5,0Z"/><path class="cls-2" d="m287.74,320.74c-6.47-2.09-11.82-6.25-15.53-13.81-.02.4-.05.68-.03.94.14,2.23.9,3.97,1.92,5.46,1.71,2.5,3.84,4.23,6.23,5.47,2.18,1.13,4.53,1.61,6.91,1.95.16.02.34,0,.5,0Z"/><path class="cls-2" d="m222.5,282.15c-2.41.07-4.85.03-7.25-.2-5.08-.5-9.86.36-14.47,2.56-3.35,1.6-6.76,3.12-10.22,4.45-1.63.62-3.26.95-4.89,1v11.08c1.21-.02,2.44-.18,3.67-.5,3.49-.92,6.94-2.35,10.1-4.11,6.13-3.41,12.25-6.69,19.18-8.22,3.29-.72,6.26-2.29,8.73-4.63.61-.58,1.04-1.34,1.6-2.07-2.37.25-4.41.59-6.46.64Z"/><path class="cls-1" d="m185.35,331.34c-7.17-2.58-14.68-3.9-22.28-4.32-8.3-.51-16.56.69-24.62,2.56-15.32,2.51-30.65-5.68-42.34-15.46,7.56,9.72,18.15,17.56,30.23,20.64,4.15,1.06,8.54,1.42,12.9,1.03,3.96-.46,7.85-1.21,11.84-1.39,11.35-.56,23.02.99,33.58,5.21l.7.31v-8.58Z"/><path class="cls-2" d="m185.68,292.08c.6.76,1.4,1.38,2.46,2.41-1.05-4.58-1.86-9.12-2.46-13.63v11.21Z"/><path class="cls-2" d="m185.68,242.92c2.13-16.15,6.9-31.91,13.79-47.42-.43.55-.9,1.06-1.27,1.65-4.88,7.86-9.14,15.93-12.52,24.26v21.51Z"/></g></svg>