<?xml version="1.0" encoding="UTF-8"?><svg id="Layer_2" xmlns="http://www.w3.org/2000/svg" viewBox="0 0 359.75 426.28"><defs><style>.cls-1{fill:#162c63;}.cls-2{fill:#1741c9;}</style></defs><g id="Sad"><path d="m359.7,134.71c-.33-21.33-2.54-42.51-6.68-63.45-1.64-8.32-3.46-16.65-5.94-24.75-2.47-8.06-7.67-14.22-15.59-17.78-5.62-2.53-11.11-5.35-16.79-7.75-23.54-9.94-48.19-15.46-73.57-17.88-21.83-2.08-43.71-2.85-65.63-2.36-1.13,0-2.26,0-3.39,0-24.64-.09-49.2,1.03-73.57,5.02-24.45,4-47.81,11.32-69.83,22.71-3.3,1.71-6.59,3.76-9.25,6.32-5.39,5.19-7.76,12.15-9.25,19.25-2.47,11.84-4.86,23.72-6.61,35.68-1.59,10.85-2.73,21.81-3.26,32.76-1.05,21.85.37,43.62,3.07,65.33,2.81,22.57,8.4,44.49,15.7,65.93,8.8,25.85,15.5,93.85,34.23,73.44,31.92-34.76,33.47,45.23,54.67,63.63,15.38,13.35,31.94,24.83,51.51,31.38,9.9,3.32,19.95,4.45,30.25,2.52,15.37-2.87,28.99-9.78,41.8-18.43,22.39-15.12,38-83.5,57.31-55.56,18.15,26.27,31.97-48.41,43.3-75.3,6.79-16.1,12.6-32.57,16.55-49.57,3.13-13.46,5.37-27.13,7.7-40.76,2.86-16.67,3.51-33.54,3.25-50.41Z"/><path class="cls-1" d="m177.87.1c-.62.01-1.24.01-1.86.03-1.13,0-2.27,0-3.4,0-24.71-.09-49.34,1.04-73.78,5.03-24.52,4.01-47.94,11.35-70.03,22.77-3.31,1.71-6.61,3.77-9.28,6.34-5.4,5.21-7.79,12.19-9.27,19.31-2.48,11.87-4.87,23.79-6.63,35.79-1.59,10.88-2.74,21.88-3.27,32.86-1.06,21.91.37,43.74,3.08,65.51,2.82,22.64,8.43,44.62,15.74,66.12,8.82,25.92,15.54,94.12,34.33,73.66,32.01-34.86,33.57,45.36,54.83,63.81,15.43,13.39,32.03,24.9,51.65,31.47,5.9,1.98,11.85,3.17,17.88,3.42V.1Z"/><path class="cls-2" d="m359.7,134.48c-.34-21.39-2.55-42.63-6.7-63.63-1.65-8.34-3.47-16.7-5.95-24.82-2.47-8.09-7.69-14.26-15.64-17.83-5.64-2.53-11.14-5.37-16.83-7.77-23.61-9.97-48.33-15.5-73.78-17.93C219.86.5,198.89-.28,177.87.09v426.17c3.78.08,7.58-.21,11.42-.93,15.41-2.88,29.07-9.81,41.92-18.49,22.45-15.17,38.11-83.74,57.48-55.72,18.21,26.34,32.06-48.55,43.43-75.51,6.81-16.15,12.64-32.66,16.6-49.71,3.14-13.49,5.38-27.21,7.72-40.87,2.86-16.72,3.52-33.63,3.26-50.55Z"/><path class="cls-2" d="m190.98,194.97c-14.01,31.57-19.29,64.17-11.33,98.99-1.08-1.06-1.9-1.67-2.5-2.46-6.43-8.38-8.29-18.16-8.38-28.38-.22-24.42,8.29-46.12,20.94-66.5.36-.59.84-1.1,1.27-1.65Z"/><path class="cls-1" d="m294.75,218.69c-1.43-.08-2.8-.11-4.16-.24-9.76-.96-19.44-.43-29.13,1.01-7.67,1.14-15.41,1.94-23.13.18-12.6-2.88-21.13-10.26-24.97-22.75-3.19-10.36-4.29-21-4-31.8,0-.38.09-.75.16-1.28.36.12.66.13.8.29,8.93,10.66,20.66,16.66,33.7,20.7,10.3,3.19,20.61,6.45,30.64,10.37,10.59,4.14,17.83,11.69,20.1,23.53Z"/><path class="cls-2" d="m61.9,218.81c1.26-5.04,2.89-9.58,6.07-13.46,3.84-4.68,8.65-8.14,14.23-10.23,8.17-3.06,16.48-5.79,24.82-8.37,10.24-3.16,20.32-6.65,29.02-13.08,3.9-2.88,7.35-6.37,11.02-9.6.02.05.24.38.25.72.21,12.14-.68,24.14-5.27,35.55-4.91,12.2-14.57,18.14-27.14,19.8-8.1,1.07-16.16-.24-24.17-1.29-9.47-1.23-18.9-1.11-28.83-.04Z"/><path class="cls-2" d="m57.28,191.78c.14-8.39,3.2-15.51,9.2-21.29,6.03-5.81,13.28-9.69,21.09-12.4,12-4.17,24.13-7.95,36.19-11.95,9.26-3.08,18.35-6.56,26.28-12.44,4.05-3,7.6-6.53,10.68-11.11.25,3.76-.42,7.02-1.44,10.18-2.29,7.14-6.84,12.63-12.88,16.95-10.08,7.19-21.57,11.12-33.27,14.71-12.33,3.78-24.64,7.7-36.8,12-6.95,2.46-12.95,6.65-17.4,12.74-.61.83-1.1,1.74-1.65,2.61Z"/><path class="cls-1" d="m196.19,123.16c1.81,2.08,3.26,3.78,4.76,5.44,6.33,7,14.65,10.91,23.18,14.23,7.76,3.02,15.81,5.32,23.72,7.97,7.53,2.52,15.15,4.82,22.54,7.7,7.8,3.05,15.25,6.91,21.05,13.21,4.86,5.28,7.71,11.51,8.3,18.71.04.52,0,1.05-.33,1.71-.52-.85-1.02-1.71-1.56-2.54-3.87-6.06-9.55-9.97-16.03-12.55-7.68-3.05-15.53-5.71-23.41-8.21-12.17-3.87-24.61-6.9-36.26-12.35-7.04-3.29-13.61-7.2-18.7-13.18-4.78-5.62-7.4-12.11-7.27-20.15Z"/><path class="cls-1" d="m223.9,274.89c-.82,1.07-1.19,1.95-1.85,2.33-2.77,1.63-5.46,3.75-8.47,4.54-7.28,1.9-13.88,5.09-20.3,8.86-4.43,2.6-9.12,4.55-14.45,4.31-4.66-.21-8.69-2.16-12.67-4.32-2.21-1.2-4.28-2.7-6.58-3.7-3.93-1.7-7.99-3.1-11.99-4.64-2.47-.95-5.03-1.73-7.34-2.97-1.64-.88-2.95-2.4-4.4-3.64.15-.22.29-.44.44-.67,1.11.29,2.22.78,3.34.82,2.83.1,5.71.33,8.49-.09,6.12-.91,11.68.62,17.11,3.17,2.46,1.15,4.93,2.27,7.4,3.4,3.93,1.8,7.98,2.02,11.99.5,3.52-1.34,6.96-2.89,10.36-4.51,4.73-2.25,9.64-3.14,14.86-2.61,4.48.45,8.97.55,14.06-.78Z"/><path class="cls-1" d="m234.46,376.9c-18.08-3.22-36.24-5.6-54.64-5.61-18.39-.02-36.53,2.35-54.53,6.04,23.55-15.95,78.94-18.71,109.17-.43Z"/><path class="cls-2" d="m134.88,257.31c-8.93,10.77-15.65,22.76-20.55,35.82-4.89,13.03-6.34,26.78-8.29,40.44-.25-.02-.5-.03-.75-.05-.15-1-.4-2-.44-3.01-.73-17.36,1.47-34.27,8.31-50.35,2.95-6.93,6.99-13.29,12.86-18.18,2.5-2.08,5.47-3.59,8.23-5.36.21.23.43.46.64.69Z"/><path class="cls-1" d="m253.48,337.08c-1.46-29.62-9.84-56.67-29.44-80.28,1.19.35,2.03.5,2.78.84,6.48,2.93,11.07,7.99,14.72,13.84,6.13,9.85,9.68,20.7,11.6,32.12,1.75,10.42,1.44,20.87.71,31.34-.05.72-.24,1.42-.37,2.14Z"/><path class="cls-2" d="m177.36,364.28h5.2c-22.39-.35-44.51,4.41-57.27,13.05,17.19-3.53,34.52-5.82,52.07-6v-7.05Z"/><path class="cls-2" d="m177.36,283.67c-1.59-.21-3.17-.66-4.73-1.38-2.47-1.13-4.94-2.25-7.4-3.4-5.43-2.55-10.99-4.08-17.11-3.17-2.78.41-5.66.19-8.49.09-1.12-.04-2.23-.53-3.34-.82-.15.22-.29.44-.44.67,1.45,1.24,2.76,2.76,4.4,3.64,2.31,1.24,4.88,2.02,7.34,2.97,4,1.54,8.06,2.94,11.99,4.64,2.29.99,4.36,2.5,6.58,3.7,3.55,1.92,7.15,3.68,11.2,4.18v-11.12Z"/><path class="cls-1" d="m177.36,241.18c2.21-15.73,6.91-31.09,13.62-46.21-.43.55-.9,1.06-1.27,1.65-4.8,7.73-9,15.65-12.35,23.84v20.72Z"/><path class="cls-1" d="m177.36,291.73c.58.68,1.32,1.28,2.29,2.22-.95-4.17-1.71-8.31-2.29-12.41v10.19Z"/></g></svg>